<svg width="24" height="24" viewBox="0 0 24 24" fill="none" xmlns="http://www.w3.org/2000/svg">
<path d="M14.1 14.4189V18.4639C14.1 19.2449 14.733 19.8789 15.514 19.8789H22.586C23.367 19.8789 24 19.2449 24 18.4639V14.4189L19.791 17.0089C19.337 17.2889 18.763 17.2889 18.309 17.0089L14.1 14.4189Z" fill="#F87171"/>
<path d="M24 13.589V13.514C24 12.733 23.367 12.1 22.586 12.1H15.514C14.733 12.1 14.1 12.733 14.1 13.514V13.589L18.679 16.407C18.907 16.547 19.193 16.547 19.421 16.407L24 13.589Z" fill="#F87171"/>
<path fill-rule="evenodd" clip-rule="evenodd" d="M5 4C3.34315 4 2 5.34315 2 7V17C2 18.6569 3.34315 20 5 20H13V18H5C4.44772 18 4 17.5523 4 17V7C4 6.44772 4.44772 6 5 6H7.78388C8.01539 6 8.23973 6.08033 8.41862 6.22727L10.8119 8.19318C11.3486 8.63402 12.0216 8.875 12.7161 8.875H19C19.5523 8.875 20 9.32272 20 9.875V10H22V9.875C22 8.21815 20.6569 6.875 19 6.875H12.7161C12.4846 6.875 12.2603 6.79467 12.0814 6.64773L9.6881 4.68182C9.15142 4.24098 8.47841 4 7.78388 4H5Z" fill="#64748B"/>
</svg>
