<svg width="24" height="24" viewBox="0 0 24 24" fill="none" xmlns="http://www.w3.org/2000/svg">
<path fill-rule="evenodd" clip-rule="evenodd" d="M5 4C3.34315 4 2 5.34315 2 7V17C2 18.6569 3.34315 20 5 20H13V18H5C4.44772 18 4 17.5523 4 17V7C4 6.44772 4.44772 6 5 6H7.78388C8.01539 6 8.23973 6.08033 8.41862 6.22727L10.8119 8.19318C11.3486 8.63402 12.0216 8.875 12.7161 8.875H19C19.5523 8.875 20 9.32272 20 9.875V10H22V9.875C22 8.21815 20.6569 6.875 19 6.875H12.7161C12.4846 6.875 12.2603 6.79467 12.0814 6.64773L9.6881 4.68182C9.15142 4.24098 8.47841 4 7.78388 4H5Z" fill="#64748B"/>
<path d="M18.7144 20.0952C17.9592 20.0952 17.2868 19.9922 16.6974 19.7862C16.1079 19.5826 15.6095 19.2831 15.2023 18.8878C14.7951 18.4948 14.485 18.0142 14.2719 17.446C14.0589 16.8778 13.9523 16.2315 13.9523 15.5071C13.9523 14.7921 14.0589 14.1435 14.2719 13.5611C14.4874 12.9787 14.801 12.4792 15.213 12.0625C15.6249 11.6435 16.128 11.3215 16.7222 11.0966C17.3188 10.8717 17.9983 10.7592 18.7606 10.7592C19.4661 10.7592 20.0958 10.8622 20.6498 11.0682C21.2061 11.2741 21.6772 11.5677 22.0631 11.9489C22.4514 12.3277 22.7461 12.7786 22.9474 13.3018C23.151 13.8227 23.2516 14.3991 23.2492 15.0312C23.2516 15.4669 23.2137 15.867 23.1356 16.2315C23.0574 16.5961 22.9343 16.9145 22.7662 17.1868C22.6005 17.4567 22.3827 17.6709 22.1128 17.8295C21.843 17.9858 21.5162 18.0746 21.1327 18.0959C20.8581 18.1172 20.6356 18.0971 20.4651 18.0355C20.2947 17.974 20.1644 17.8828 20.0745 17.7621C19.9869 17.639 19.9301 17.4957 19.904 17.3324H19.8614C19.8046 17.4744 19.6933 17.6035 19.5276 17.7195C19.3619 17.8331 19.1595 17.9219 18.9204 17.9858C18.6836 18.0473 18.4315 18.0698 18.164 18.0533C17.8846 18.0367 17.6195 17.9716 17.3685 17.858C17.1199 17.7443 16.8986 17.5798 16.7045 17.3643C16.5127 17.1489 16.3612 16.8826 16.2499 16.5653C16.141 16.2481 16.0854 15.8812 16.083 15.4645C16.0854 15.0526 16.1434 14.6939 16.257 14.3885C16.373 14.0831 16.5257 13.8262 16.7151 13.6179C16.9069 13.4096 17.1199 13.2462 17.3543 13.1278C17.5887 13.0095 17.8242 12.9337 18.061 12.9006C18.3285 12.8603 18.5818 12.8603 18.8209 12.9006C19.06 12.9408 19.2613 13.0059 19.4246 13.0959C19.5903 13.1858 19.6933 13.2829 19.7336 13.3871H19.7833V12.9893H20.8948V16.4553C20.8972 16.6186 20.9339 16.7453 21.0049 16.8352C21.0759 16.9252 21.1718 16.9702 21.2925 16.9702C21.4559 16.9702 21.592 16.898 21.7009 16.7536C21.8122 16.6091 21.895 16.3878 21.9495 16.0895C22.0063 15.7912 22.0347 15.4112 22.0347 14.9496C22.0347 14.5045 21.9755 14.1139 21.8572 13.7777C21.7412 13.4392 21.5778 13.1515 21.3671 12.9148C21.1588 12.6757 20.9161 12.4815 20.6391 12.3324C20.3621 12.1832 20.0615 12.0743 19.7371 12.0057C19.4152 11.937 19.0837 11.9027 18.7428 11.9027C18.1533 11.9027 17.6384 11.9927 17.1981 12.1726C16.7577 12.3501 16.3908 12.5999 16.0972 12.9219C15.8037 13.2438 15.5835 13.6214 15.4367 14.0547C15.2923 14.4856 15.2189 14.9555 15.2165 15.4645C15.2189 16.0256 15.297 16.5227 15.4509 16.956C15.6072 17.3868 15.8368 17.7491 16.1398 18.0426C16.4429 18.3362 16.8169 18.5587 17.262 18.7102C17.7071 18.8617 18.2184 18.9375 18.7961 18.9375C19.0683 18.9375 19.3347 18.9174 19.5951 18.8771C19.8555 18.8393 20.0911 18.7919 20.3018 18.7351C20.5125 18.6806 20.6817 18.6274 20.8096 18.5753L21.1611 19.6051C21.012 19.6903 20.8096 19.7696 20.5539 19.843C20.3006 19.9188 20.0141 19.9792 19.6945 20.0241C19.3773 20.0715 19.0506 20.0952 18.7144 20.0952ZM18.551 16.8849C18.8399 16.8849 19.0695 16.8293 19.24 16.718C19.4128 16.6068 19.5359 16.4422 19.6093 16.2244C19.685 16.0043 19.7206 15.7332 19.7158 15.4112C19.7135 15.1271 19.6768 14.8868 19.6057 14.6903C19.5371 14.4915 19.4175 14.3411 19.2471 14.2393C19.079 14.1352 18.8446 14.0831 18.5439 14.0831C18.2812 14.0831 18.0574 14.1387 17.8728 14.25C17.6905 14.3613 17.5508 14.5175 17.4537 14.7188C17.359 14.9176 17.3105 15.152 17.3081 15.4219C17.3105 15.6728 17.3508 15.9107 17.4289 16.1357C17.507 16.3582 17.636 16.5393 17.816 16.679C17.9959 16.8163 18.2409 16.8849 18.551 16.8849Z" fill="#C084FC"/>
</svg>
