<svg width="24" height="24" viewBox="0 0 24 24" fill="none" xmlns="http://www.w3.org/2000/svg">
<path fill-rule="evenodd" clip-rule="evenodd" d="M5 4C3.34315 4 2 5.34315 2 7V17C2 18.6569 3.34315 20 5 20H13V18H5C4.44772 18 4 17.5523 4 17V7C4 6.44772 4.44772 6 5 6H7.78388C8.01539 6 8.23973 6.08033 8.41862 6.22727L10.8119 8.19318C11.3486 8.63402 12.0216 8.875 12.7161 8.875H19C19.5523 8.875 20 9.32272 20 9.875V10H22V9.875C22 8.21815 20.6569 6.875 19 6.875H12.7161C12.4846 6.875 12.2603 6.79467 12.0814 6.64773L9.6881 4.68182C9.15142 4.24098 8.47841 4 7.78388 4H5Z" fill="#64748B"/>
<path d="M23.1714 20H15.6286C15.4619 20 15.302 19.9234 15.1841 19.787C15.0662 19.6506 15 19.4656 15 19.2727V17.4545H15.6286V19.2727H23.1714V17.4545H23.8V19.2727C23.8 19.4656 23.7338 19.6506 23.6159 19.787C23.498 19.9234 23.3381 20 23.1714 20Z" fill="#FACC15"/>
<path d="M16.5714 17.4545H22.2286V18.1818H16.5714V17.4545ZM16.5714 15.6364H22.2286V16.3636H16.5714V15.6364ZM16.5714 13.8182H22.2286V14.5455H16.5714V13.8182ZM16.5714 12H22.2286V12.7273H16.5714V12Z" fill="#FACC15"/>
</svg>
