<svg width="24" height="24" viewBox="0 0 24 24" fill="none" xmlns="http://www.w3.org/2000/svg">
<path fill-rule="evenodd" clip-rule="evenodd" d="M5 4C3.34315 4 2 5.34315 2 7V17C2 18.6569 3.34315 20 5 20H13V18H5C4.44772 18 4 17.5523 4 17V7C4 6.44772 4.44772 6 5 6H7.78388C8.01539 6 8.23973 6.08033 8.41862 6.22727L10.8119 8.19318C11.3486 8.63402 12.0216 8.875 12.7161 8.875H19C19.5523 8.875 20 9.32272 20 9.875V10H22V9.875C22 8.21815 20.6569 6.875 19 6.875H12.7161C12.4846 6.875 12.2603 6.79467 12.0814 6.64773L9.6881 4.68182C9.15142 4.24098 8.47841 4 7.78388 4H5Z" fill="#64748B"/>
<path d="M17.25 19.5455C16.6295 19.5455 16.0995 19.3307 15.6599 18.9011C15.2202 18.4716 15.0003 17.9466 15 17.3261C15 16.7943 15.1602 16.3205 15.4807 15.9045C15.8011 15.4886 16.2205 15.2227 16.7386 15.1068C16.9091 14.4795 17.25 13.9716 17.7614 13.583C18.2727 13.1943 18.8523 13 19.5 13C20.2977 13 20.9745 13.2779 21.5303 13.8337C22.0861 14.3895 22.3639 15.0662 22.3636 15.8636C22.8341 15.9182 23.2245 16.1211 23.5349 16.4724C23.8452 16.8236 24.0003 17.2344 24 17.7045C24 18.2159 23.8211 18.6506 23.4633 19.0087C23.1055 19.3668 22.6707 19.5457 22.1591 19.5455H17.25Z" fill="#F59E0B"/>
</svg>
