<svg width="24" height="24" viewBox="0 0 24 24" fill="none" xmlns="http://www.w3.org/2000/svg">
<path fill-rule="evenodd" clip-rule="evenodd" d="M5 4C3.34315 4 2 5.34315 2 7V17C2 18.6569 3.34315 20 5 20H13V18H5C4.44772 18 4 17.5523 4 17V7C4 6.44772 4.44772 6 5 6H7.78388C8.01539 6 8.23973 6.08033 8.41862 6.22727L10.8119 8.19318C11.3486 8.63402 12.0216 8.875 12.7161 8.875H19C19.5523 8.875 20 9.32272 20 9.875V10H22V9.875C22 8.21815 20.6569 6.875 19 6.875H12.7161C12.4846 6.875 12.2603 6.79467 12.0814 6.64773L9.6881 4.68182C9.15142 4.24098 8.47841 4 7.78388 4H5Z" fill="#64748B"/>
<g clip-path="url(#clip0_31529_193)">
<path d="M22.7718 14.6128L22.7594 14.581L21.5565 11.4417C21.532 11.3802 21.4886 11.328 21.4327 11.2926C21.3767 11.2578 21.3113 11.241 21.2455 11.2446C21.1796 11.2481 21.1165 11.2717 21.0645 11.3123C21.0132 11.3541 20.9759 11.4107 20.9578 11.4743L20.1456 13.9593H16.8567L16.0445 11.4743C16.0268 11.4103 15.9895 11.3535 15.9377 11.3119C15.8858 11.2713 15.8226 11.2477 15.7568 11.2441C15.6909 11.2406 15.6256 11.2574 15.5696 11.2922C15.5137 11.3277 15.4704 11.3798 15.4458 11.4413L14.2406 14.5792L14.2287 14.611C13.8729 15.5404 14.175 16.5932 14.9695 17.1926L14.9737 17.1958L14.9847 17.2036L16.8171 18.5758L17.7237 19.2619L18.2759 19.6789C18.3405 19.728 18.4194 19.7545 18.5005 19.7545C18.5816 19.7545 18.6605 19.728 18.7251 19.6789L19.2773 19.2619L20.1838 18.5758L22.0273 17.1953L22.0319 17.1916C22.8245 16.5922 23.1261 15.5413 22.7718 14.6128Z" fill="#E24329"/>
<path d="M22.7718 14.6128L22.7594 14.581C22.1733 14.7014 21.6209 14.9496 21.1419 15.3081L18.5 17.3058C19.3996 17.9864 20.1829 18.5777 20.1829 18.5777L22.0263 17.1972L22.0309 17.1935C22.8248 16.594 23.1268 15.542 22.7718 14.6128Z" fill="#FC6D26"/>
<path d="M16.8171 18.5776L17.7237 19.2638L18.2759 19.6807C18.3405 19.7298 18.4194 19.7563 18.5005 19.7563C18.5816 19.7563 18.6605 19.7298 18.7251 19.6807L19.2773 19.2638L20.1838 18.5776C20.1838 18.5776 19.3997 17.9845 18.5001 17.3057C17.9387 17.7292 17.3778 18.1532 16.8171 18.5776Z" fill="#FCA326"/>
<path d="M15.8577 15.3081C15.379 14.9488 14.8268 14.6999 14.2406 14.5792L14.2287 14.611C13.8729 15.5404 14.175 16.5932 14.9695 17.1926L14.9737 17.1958L14.9847 17.2036L16.8171 18.5758L18.5 17.3039L15.8577 15.3081Z" fill="#FC6D26"/>
</g>
<defs>
<clipPath id="clip0_31529_193">
<rect width="9" height="9" fill="white" transform="translate(14 11)"/>
</clipPath>
</defs>
</svg>
