<svg width="24" height="24" viewBox="0 0 24 24" fill="none" xmlns="http://www.w3.org/2000/svg">
<path fill-rule="evenodd" clip-rule="evenodd" d="M5 4C3.34315 4 2 5.34315 2 7V17C2 18.6569 3.34315 20 5 20H13V18H5C4.44772 18 4 17.5523 4 17V7C4 6.44772 4.44772 6 5 6H7.78388C8.01539 6 8.23973 6.08033 8.41862 6.22727L10.8119 8.19318C11.3486 8.63402 12.0216 8.875 12.7161 8.875H19C19.5523 8.875 20 9.32272 20 9.875V10H22V9.875C22 8.21815 20.6569 6.875 19 6.875H12.7161C12.4846 6.875 12.2603 6.79467 12.0814 6.64773L9.6881 4.68182C9.15142 4.24098 8.47841 4 7.78388 4H5Z" fill="#64748B"/>
<path d="M19.7059 12C20.3478 12 20.8681 12.4976 20.8681 13.1114L20.8678 13.35H22.5294C22.7893 13.35 23 13.5515 23 13.8L22.9995 15.3745L22.2799 15.375C21.6637 15.375 21.1595 15.8335 21.1201 16.4133L21.1176 16.4864V16.5136C21.1176 17.1029 21.5972 17.585 22.2034 17.6226L22.2799 17.625L22.9995 17.6245L23 19.2013C23 19.4498 22.7893 19.6513 22.5294 19.6513L20.8678 19.6509L20.8681 19.8886C20.8681 20.5024 20.3478 21 19.7059 21C19.064 21 18.5437 20.5024 18.5437 19.8886L18.5435 19.6509L16.8824 19.6513C16.6225 19.6513 16.4118 19.4498 16.4118 19.2013L16.4113 17.6119L16.1622 17.612C15.5203 17.612 15 17.1144 15 16.5007C15 15.8869 15.5203 15.3893 16.1622 15.3893L16.4113 15.3889L16.4118 13.8C16.4118 13.5515 16.6225 13.35 16.8824 13.35H18.5435L18.5437 13.1114C18.5437 12.4976 19.064 12 19.7059 12Z" stroke="#60A5FA" stroke-linejoin="round"/>
</svg>
