<svg width="24" height="24" viewBox="0 0 24 24" fill="none" xmlns="http://www.w3.org/2000/svg">
<path fill-rule="evenodd" clip-rule="evenodd" d="M5 4C3.34315 4 2 5.34315 2 7V17C2 18.6569 3.34315 20 5 20H13V18H5C4.44772 18 4 17.5523 4 17V7C4 6.44772 4.44772 6 5 6H7.78388C8.01539 6 8.23973 6.08033 8.41862 6.22727L10.8119 8.19318C11.3486 8.63402 12.0216 8.875 12.7161 8.875H19C19.5523 8.875 20 9.32272 20 9.875V10H22V9.875C22 8.21815 20.6569 6.875 19 6.875H12.7161C12.4846 6.875 12.2603 6.79467 12.0814 6.64773L9.6881 4.68182C9.15142 4.24098 8.47841 4 7.78388 4H5Z" fill="#64748B"/>
<path d="M23.1 12L24 13.7778V19.5556C24 19.6734 23.9526 19.7865 23.8682 19.8698C23.7838 19.9532 23.6693 20 23.55 20H15.45C15.3307 20 15.2162 19.9532 15.1318 19.8698C15.0474 19.7865 15 19.6734 15 19.5556V13.7796L15.9 12H23.1ZM19.5 15.1111L17.7 16.8889H19.05V18.6667H19.95V16.8889H21.3L19.5 15.1111ZM22.5438 12.8889H16.4562L16.0066 13.7778H22.9938L22.5438 12.8889Z" fill="#3B82F6"/>
</svg>
