<svg width="24" height="24" viewBox="0 0 24 24" fill="none" xmlns="http://www.w3.org/2000/svg">
<path fill-rule="evenodd" clip-rule="evenodd" d="M5 4C3.34315 4 2 5.34315 2 7V17C2 18.6569 3.34315 20 5 20H13V18H5C4.44772 18 4 17.5523 4 17V7C4 6.44772 4.44772 6 5 6H7.78388C8.01539 6 8.23973 6.08033 8.41862 6.22727L10.8119 8.19318C11.3486 8.63402 12.0216 8.875 12.7161 8.875H19C19.5523 8.875 20 9.32272 20 9.875V10H22V9.875C22 8.21815 20.6569 6.875 19 6.875H12.7161C12.4846 6.875 12.2603 6.79467 12.0814 6.64773L9.6881 4.68182C9.15142 4.24098 8.47841 4 7.78388 4H5Z" fill="#64748B"/>
<path d="M18.592 13.152L18.584 11H17.384L17.392 13.152L17.992 13.976L18.592 13.152ZM17.392 16.84V19H18.592V16.84L17.992 16.016L17.392 16.84Z" fill="white"/>
<path d="M18.592 16.84L19.856 18.584L20.824 17.88L19.56 16.136L18.592 15.824V16.84ZM17.392 13.152L16.12 11.408L15.152 12.112L16.416 13.856L17.392 14.168V13.152Z" fill="#00F2E6"/>
<path d="M16.4233 13.7361L14.3691 13L14 14.2594L16.0542 15.0044L17.0251 14.6497L16.4233 13.7361ZM18.9749 15.3503L19.5767 16.2639L21.6309 17L22 15.7406L19.9458 15.0044L18.9749 15.3503Z" fill="#00B9F1"/>
<path d="M19.928 15L21.976 14.328L21.608 13.192L19.56 13.856L18.96 14.68L19.928 15ZM16.048 15L14 15.664L14.368 16.8L16.416 16.136L17.016 15.312L16.048 15Z" fill="#D63AFF"/>
<path d="M16.416 16.136L15.152 17.88L16.12 18.584L17.392 16.84V15.824L16.416 16.136ZM19.56 13.856L20.824 12.112L19.856 11.408L18.592 13.152V14.168L19.56 13.856Z" fill="#FB015B"/>
</svg>
