<svg width="24" height="24" viewBox="0 0 24 24" fill="none" xmlns="http://www.w3.org/2000/svg">
<path fill-rule="evenodd" clip-rule="evenodd" d="M5 4C3.34315 4 2 5.34315 2 7V17C2 18.6569 3.34315 20 5 20H13V18H5C4.44772 18 4 17.5523 4 17V7C4 6.44772 4.44772 6 5 6H7.78388C8.01539 6 8.23973 6.08033 8.41862 6.22727L10.8119 8.19318C11.3486 8.63402 12.0216 8.875 12.7161 8.875H19C19.5523 8.875 20 9.32272 20 9.875V10H22V9.875C22 8.21815 20.6569 6.875 19 6.875H12.7161C12.4846 6.875 12.2603 6.79467 12.0814 6.64773L9.6881 4.68182C9.15142 4.24098 8.47841 4 7.78388 4H5Z" fill="#64748B"/>
<path d="M23 18.2857V18.7143H15V18.2857L15.8889 17.4286V14.8571C15.8889 13.5286 16.7911 12.3586 18.1111 11.9814V11.8571C18.1111 11.6298 18.2048 11.4118 18.3715 11.2511C18.5382 11.0903 18.7643 11 19 11C19.2357 11 19.4618 11.0903 19.6285 11.2511C19.7952 11.4118 19.8889 11.6298 19.8889 11.8571V11.9814C21.2089 12.3586 22.1111 13.5286 22.1111 14.8571V17.4286L23 18.2857ZM19.8889 19.1429C19.8889 19.3702 19.7952 19.5882 19.6285 19.7489C19.4618 19.9097 19.2357 20 19 20C18.7643 20 18.5382 19.9097 18.3715 19.7489C18.2048 19.5882 18.1111 19.3702 18.1111 19.1429" fill="#FACC15"/>
</svg>
