<svg width="24" height="24" viewBox="0 0 24 24" fill="none" xmlns="http://www.w3.org/2000/svg">
<path fill-rule="evenodd" clip-rule="evenodd" d="M5 4C3.34315 4 2 5.34315 2 7V17C2 18.6569 3.34315 20 5 20H13V18H5C4.44772 18 4 17.5523 4 17V7C4 6.44772 4.44772 6 5 6H7.78388C8.01539 6 8.23973 6.08033 8.41862 6.22727L10.8119 8.19318C11.3486 8.63402 12.0216 8.875 12.7161 8.875H19C19.5523 8.875 20 9.32272 20 9.875V10H22V9.875C22 8.21815 20.6569 6.875 19 6.875H12.7161C12.4846 6.875 12.2603 6.79467 12.0814 6.64773L9.6881 4.68182C9.15142 4.24098 8.47841 4 7.78388 4H5Z" fill="#64748B"/>
<path fill-rule="evenodd" clip-rule="evenodd" d="M18.691 12.96C18.7824 12.96 18.8707 12.9464 18.9543 12.921L21.7931 18.0518C21.6659 18.1789 21.5728 18.3429 21.5298 18.5273H15.8517C15.8088 18.343 15.7158 18.1792 15.5888 18.0522L18.4278 12.921C18.5113 12.9464 18.5997 12.96 18.691 12.96ZM15.8517 18.9926C15.8485 19.0066 15.8449 19.0205 15.8411 19.0343L18.0124 20.3425C18.1834 20.1561 18.4242 20.04 18.691 20.04C18.9578 20.04 19.1987 20.1561 19.3696 20.3425L21.5406 19.0346C21.5367 19.0207 21.5331 19.0067 21.5298 18.9926H15.8517ZM17.7893 20.7453L15.618 19.4372C15.447 19.6238 15.2061 19.74 14.9392 19.74C14.4205 19.74 14 19.3012 14 18.7599C14 18.2987 14.3054 17.9118 14.7168 17.8076V15.1924C14.3054 15.0881 14 14.7013 14 14.24C14 13.6987 14.4205 13.26 14.9392 13.26C15.2061 13.26 15.447 13.3762 15.618 13.5627L17.7892 12.2546C17.7649 12.1675 17.7519 12.0754 17.7519 11.98C17.7519 11.4388 18.1723 11 18.691 11C19.2097 11 19.6302 11.4388 19.6302 11.98C19.6302 12.0754 19.6172 12.1675 19.5928 12.2546L21.7637 13.5625C21.9347 13.3761 22.1755 13.26 22.4424 13.26C22.9611 13.26 23.3815 13.6987 23.3815 14.24C23.3815 14.7011 23.0764 15.0878 22.6653 15.1922V17.8077C23.0764 17.9122 23.3815 18.2989 23.3815 18.7599C23.3815 19.3012 22.9611 19.74 22.4424 19.74C22.1755 19.74 21.9347 19.6239 21.7637 19.4374L19.5928 20.7453C19.6172 20.8325 19.6302 20.9246 19.6302 21.02C19.6302 21.5612 19.2097 22 18.691 22C18.1723 22 17.7519 21.5612 17.7519 21.02C17.7519 20.9246 17.7649 20.8325 17.7893 20.7453ZM15.1627 15.1921C15.5735 15.0874 15.8784 14.7009 15.8784 14.24C15.8784 14.1447 15.8653 14.0527 15.8411 13.9656L18.0124 12.6575C18.022 12.6679 18.0318 12.6781 18.0418 12.6881L15.2029 17.8191C15.1896 17.815 15.1762 17.8113 15.1627 17.8079V15.1921ZM22.1792 17.8189C22.1924 17.8149 22.2059 17.8112 22.2194 17.8077V15.1922C21.8083 15.0878 21.5032 14.7011 21.5032 14.24C21.5032 14.1446 21.5162 14.0525 21.5406 13.9653L19.3697 12.6575C19.3601 12.6679 19.3503 12.6782 19.3403 12.6881L22.1792 17.8189Z" fill="#F472B6"/>
</svg>
