<svg width="24" height="24" viewBox="0 0 24 24" fill="none" xmlns="http://www.w3.org/2000/svg">
<path fill-rule="evenodd" clip-rule="evenodd" d="M5 4C3.34315 4 2 5.34315 2 7V17C2 18.6569 3.34315 20 5 20H13V18H5C4.44772 18 4 17.5523 4 17V7C4 6.44772 4.44772 6 5 6H7.78388C8.01539 6 8.23973 6.08033 8.41862 6.22727L10.8119 8.19318C11.3486 8.63402 12.0216 8.875 12.7161 8.875H19C19.5523 8.875 20 9.32272 20 9.875V10H22V9.875C22 8.21815 20.6569 6.875 19 6.875H12.7161C12.4846 6.875 12.2603 6.79467 12.0814 6.64773L9.6881 4.68182C9.15142 4.24098 8.47841 4 7.78388 4H5Z" fill="#64748B"/>
<path d="M16.9329 13.1818H18.1488V17.2386C18.1488 17.6136 18.0645 17.9394 17.896 18.2159C17.7293 18.4924 17.4973 18.7055 17.1999 18.8551C16.9026 19.0047 16.5569 19.0795 16.163 19.0795C15.8126 19.0795 15.4944 19.018 15.2085 18.8949C14.9244 18.7699 14.699 18.5805 14.5323 18.3267C14.3656 18.071 14.2833 17.75 14.2852 17.3636H15.5096C15.5134 17.517 15.5446 17.6487 15.6033 17.7585C15.6639 17.8665 15.7463 17.9498 15.8505 18.0085C15.9566 18.0653 16.0816 18.0938 16.2255 18.0938C16.377 18.0938 16.5049 18.0616 16.609 17.9972C16.7151 17.9309 16.7956 17.8343 16.8505 17.7074C16.9054 17.5805 16.9329 17.4242 16.9329 17.2386V13.1818ZM22.3221 14.8551C22.2994 14.6259 22.2018 14.4479 22.0295 14.321C21.8571 14.1941 21.6232 14.1307 21.3278 14.1307C21.127 14.1307 20.9575 14.1591 20.8192 14.2159C20.681 14.2708 20.5749 14.3475 20.5011 14.446C20.4291 14.5445 20.3931 14.6562 20.3931 14.7812C20.3893 14.8854 20.4111 14.9763 20.4585 15.054C20.5077 15.1316 20.5749 15.1989 20.6602 15.2557C20.7454 15.3106 20.8439 15.3589 20.9556 15.4006C21.0674 15.4403 21.1867 15.4744 21.3136 15.5028L21.8363 15.6278C22.0901 15.6847 22.323 15.7604 22.5352 15.8551C22.7473 15.9498 22.931 16.0663 23.0863 16.2045C23.2416 16.3428 23.3619 16.5057 23.4471 16.6932C23.5342 16.8807 23.5787 17.0956 23.5806 17.3381C23.5787 17.6941 23.4878 18.0028 23.3079 18.2642C23.1299 18.5237 22.8723 18.7254 22.5352 18.8693C22.1999 19.0114 21.7956 19.0824 21.3221 19.0824C20.8524 19.0824 20.4433 19.0104 20.0948 18.8665C19.7482 18.7225 19.4774 18.5095 19.2823 18.2273C19.0891 17.9432 18.9878 17.5919 18.9783 17.1733H20.1687C20.1819 17.3684 20.2378 17.5312 20.3363 17.6619C20.4367 17.7907 20.5702 17.8883 20.7369 17.9545C20.9054 18.0189 21.0958 18.0511 21.3079 18.0511C21.5162 18.0511 21.6971 18.0208 21.8505 17.9602C22.0058 17.8996 22.1261 17.8153 22.2113 17.7074C22.2965 17.5994 22.3391 17.4754 22.3391 17.3352C22.3391 17.2045 22.3003 17.0947 22.2227 17.0057C22.1469 16.9167 22.0352 16.8409 21.8874 16.7784C21.7416 16.7159 21.5626 16.6591 21.3505 16.608L20.717 16.4489C20.2264 16.3295 19.8391 16.143 19.555 15.8892C19.271 15.6354 19.1299 15.2936 19.1317 14.8636C19.1299 14.5114 19.2236 14.2036 19.413 13.9403C19.6043 13.6771 19.8666 13.4716 20.1999 13.3239C20.5333 13.1761 20.9121 13.1023 21.3363 13.1023C21.7681 13.1023 22.145 13.1761 22.467 13.3239C22.7908 13.4716 23.0427 13.6771 23.2227 13.9403C23.4026 14.2036 23.4954 14.5085 23.5011 14.8551H22.3221Z" fill="#F59E0B"/>
</svg>
