<svg width="24" height="24" viewBox="0 0 24 24" fill="none" xmlns="http://www.w3.org/2000/svg">
<path fill-rule="evenodd" clip-rule="evenodd" d="M5 4C3.34315 4 2 5.34315 2 7V17C2 18.6569 3.34315 20 5 20H13V18H5C4.44772 18 4 17.5523 4 17V7C4 6.44772 4.44772 6 5 6H7.78388C8.01539 6 8.23973 6.08033 8.41862 6.22727L10.8119 8.19318C11.3486 8.63402 12.0216 8.875 12.7161 8.875H19C19.5523 8.875 20 9.32272 20 9.875V10H22V9.875C22 8.21815 20.6569 6.875 19 6.875H12.7161C12.4846 6.875 12.2603 6.79467 12.0814 6.64773L9.6881 4.68182C9.15142 4.24098 8.47841 4 7.78388 4H5Z" fill="#64748B"/>
<path d="M19.3332 11L19.585 11.4574C19.7551 11.7662 19.8401 11.9209 19.7837 11.9871C19.7277 12.0534 19.5424 11.9998 19.1715 11.893C18.7911 11.7836 18.3965 11.7281 17.9998 11.7282C15.7906 11.7282 14 13.4169 14 15.5C13.9993 16.1641 14.1841 16.8159 14.5347 17.3859M16.6668 20L16.415 19.5426C16.2449 19.2334 16.1599 19.0787 16.2163 19.0129C16.2723 18.9466 16.4576 18.9998 16.8285 19.107C17.199 19.2137 17.5927 19.2714 18.0002 19.2714C20.2094 19.2714 22 17.5827 22 15.4996C22.0006 14.8357 21.8158 14.184 21.4653 13.6141" stroke="#F38020" stroke-linecap="round" stroke-linejoin="round"/>
</svg>
