<svg width="24" height="24" viewBox="0 0 24 24" fill="none" xmlns="http://www.w3.org/2000/svg">
<path fill-rule="evenodd" clip-rule="evenodd" d="M5 4C3.34315 4 2 5.34315 2 7V17C2 18.6569 3.34315 20 5 20H13V18H5C4.44772 18 4 17.5523 4 17V7C4 6.44772 4.44772 6 5 6H7.78388C8.01539 6 8.23973 6.08033 8.41862 6.22727L10.8119 8.19318C11.3486 8.63402 12.0216 8.875 12.7161 8.875H19C19.5523 8.875 20 9.32272 20 9.875V10H22V9.875C22 8.21815 20.6569 6.875 19 6.875H12.7161C12.4846 6.875 12.2603 6.79467 12.0814 6.64773L9.6881 4.68182C9.15142 4.24098 8.47841 4 7.78388 4H5Z" fill="#64748B"/>
<path d="M19 20C18.4467 20 17.9267 19.8949 17.44 19.6848C16.9533 19.4747 16.53 19.1897 16.17 18.83C15.81 18.4703 15.5251 18.0469 15.3152 17.56C15.1053 17.0731 15.0003 16.5531 15 16C14.9997 15.4469 15.1048 14.9269 15.3152 14.44C15.5256 13.9531 15.8105 13.5297 16.17 13.17C16.5295 12.8103 16.9528 12.5253 17.44 12.3152C17.9272 12.1051 18.4472 12 19 12C19.5528 12 20.0728 12.1051 20.56 12.3152C21.0472 12.5253 21.4705 12.8103 21.83 13.17C22.1895 13.5297 22.4745 13.9531 22.6852 14.44C22.8959 14.9269 23.0008 15.4469 23 16C22.9992 16.5531 22.8941 17.0731 22.6848 17.56C22.4755 18.0469 22.1905 18.4703 21.83 18.83C21.4695 19.1897 21.0461 19.4748 20.56 19.6852C20.0739 19.8956 19.5539 20.0005 19 20ZM19 19.2C19.36 19.2 19.7067 19.1417 20.04 19.0252C20.3733 18.9087 20.68 18.7403 20.96 18.52L16.48 14.04C16.26 14.32 16.0916 14.6267 15.9748 14.96C15.858 15.2933 15.7997 15.64 15.8 16C15.8 16.8933 16.11 17.65 16.73 18.27C17.35 18.89 18.1067 19.2 19 19.2ZM21.52 17.96C21.74 17.68 21.9084 17.3733 22.0252 17.04C22.142 16.7067 22.2003 16.36 22.2 16C22.2 15.1067 21.89 14.35 21.27 13.73C20.65 13.11 19.8933 12.8 19 12.8C18.64 12.8 18.2933 12.8583 17.96 12.9748C17.6267 13.0913 17.32 13.2597 17.04 13.48L21.52 17.96Z" fill="#EF4444"/>
</svg>
