<svg width="24" height="24" viewBox="0 0 24 24" fill="none" xmlns="http://www.w3.org/2000/svg">
<path fill-rule="evenodd" clip-rule="evenodd" d="M5 4C3.34315 4 2 5.34315 2 7V17C2 18.6569 3.34315 20 5 20H13V18H5C4.44772 18 4 17.5523 4 17V7C4 6.44772 4.44772 6 5 6H7.78388C8.01539 6 8.23973 6.08033 8.41862 6.22727L10.8119 8.19318C11.3486 8.63402 12.0216 8.875 12.7161 8.875H19C19.5523 8.875 20 9.32272 20 9.875V10H22V9.875C22 8.21815 20.6569 6.875 19 6.875H12.7161C12.4846 6.875 12.2603 6.79467 12.0814 6.64773L9.6881 4.68182C9.15142 4.24098 8.47841 4 7.78388 4H5Z" fill="#64748B"/>
<path d="M18.5 20C16.0147 20 14 17.9853 14 15.5C14 13.0147 16.0147 11 18.5 11C20.9853 11 23 13.0147 23 15.5C23 17.9853 20.9853 20 18.5 20ZM20.3 13.7H19.6925V15.5H20.3V13.7ZM17.3057 14.4695L20.0322 17.9921L20.5065 17.628L17.4573 13.7H16.7V17.2986H17.3057V14.4695Z" fill="#D4D4D8"/>
</svg>
