<svg width="24" height="24" viewBox="0 0 24 24" fill="none" xmlns="http://www.w3.org/2000/svg">
<path fill-rule="evenodd" clip-rule="evenodd" d="M5 4C3.34315 4 2 5.34315 2 7V17C2 18.6569 3.34315 20 5 20H13V18H5C4.44772 18 4 17.5523 4 17V7C4 6.44772 4.44772 6 5 6H7.78388C8.01539 6 8.23973 6.08033 8.41862 6.22727L10.8119 8.19318C11.3486 8.63402 12.0216 8.875 12.7161 8.875H19C19.5523 8.875 20 9.32272 20 9.875V10H22V9.875C22 8.21815 20.6569 6.875 19 6.875H12.7161C12.4846 6.875 12.2603 6.79467 12.0814 6.64773L9.6881 4.68182C9.15142 4.24098 8.47841 4 7.78388 4H5Z" fill="#64748B"/>
<path d="M22.7476 16.0196C22.433 16.0214 22.1605 16.0999 21.9319 16.2166C21.8476 16.0433 21.7632 15.8919 21.7491 15.7788C21.7333 15.6475 21.7139 15.5672 21.7333 15.4103C21.7526 15.2535 21.8405 15.0309 21.8405 15.0127C21.8388 14.9963 21.8212 14.916 21.6401 14.9142C21.459 14.9124 21.3026 14.9507 21.285 14.9999C21.2674 15.0492 21.2323 15.1623 21.2094 15.279C21.1778 15.4505 20.8473 16.0579 20.6592 16.3771C20.5976 16.2531 20.5449 16.1436 20.5344 16.0561C20.5185 15.9247 20.4992 15.8445 20.5185 15.6876C20.5379 15.5307 20.6258 15.3082 20.6258 15.29C20.624 15.2735 20.6064 15.1933 20.4254 15.1915C20.2443 15.1896 20.0878 15.2279 20.0702 15.2772C20.0527 15.3264 20.0333 15.4432 19.9947 15.5563C19.9577 15.6694 19.5182 16.6836 19.404 16.9481C19.346 17.0831 19.295 17.1907 19.2581 17.2636C19.2212 17.3366 19.2563 17.2691 19.2528 17.2764C19.2212 17.3384 19.2036 17.3731 19.2036 17.3731V17.3749C19.179 17.4205 19.1526 17.4643 19.1403 17.4643C19.1315 17.4643 19.1139 17.3421 19.1438 17.1743C19.2088 16.8222 19.3671 16.2731 19.3653 16.2531C19.3653 16.244 19.3952 16.1473 19.2633 16.098C19.135 16.0488 19.0893 16.1309 19.0788 16.1309C19.0682 16.1309 19.0594 16.1601 19.0594 16.1601C19.0594 16.1601 19.2018 15.5417 18.7869 15.5417C18.5268 15.5417 18.1681 15.8354 17.9906 16.1035C17.8781 16.1673 17.639 16.3023 17.3858 16.4464C17.2891 16.5012 17.1889 16.5595 17.094 16.6124L17.0747 16.5905C16.5719 16.0342 15.6419 15.6402 15.6806 14.8923C15.6947 14.6205 15.7861 13.9036 17.4667 13.0354C18.8432 12.324 19.9454 12.5191 20.1371 12.9533C20.4095 13.5735 19.5481 14.7263 18.1171 14.8923C17.5722 14.9561 17.2856 14.7372 17.2136 14.6552C17.138 14.5694 17.1274 14.5658 17.0993 14.5822C17.0536 14.6077 17.0817 14.6843 17.0993 14.73C17.1415 14.8449 17.3173 15.0492 17.6161 15.1513C17.8781 15.2407 18.518 15.29 19.2915 14.9799C20.1581 14.6314 20.835 13.6647 20.6363 12.8566C20.4341 12.0339 19.1192 11.7639 17.8763 12.2218C17.1362 12.4954 16.3346 12.9223 15.758 13.4823C15.0724 14.1462 14.9634 14.7263 15.0091 14.9671C15.169 15.8262 16.31 16.3862 16.767 16.8003C16.7442 16.8131 16.7231 16.8259 16.7037 16.8368C16.4752 16.9535 15.605 17.426 15.387 17.9258C15.1409 18.4913 15.4257 18.898 15.6156 18.9528C16.2027 19.1224 16.8039 18.8178 17.1292 18.3162C17.4526 17.8145 17.414 17.1633 17.2645 16.866L17.2593 16.855L17.4386 16.7456C17.5546 16.6745 17.6689 16.6088 17.7691 16.5522C17.7128 16.7109 17.6724 16.8988 17.6513 17.1724C17.6267 17.4935 17.7533 17.9094 17.9203 18.0735C17.9941 18.1447 18.082 18.1465 18.1365 18.1465C18.3299 18.1465 18.4178 17.9805 18.5144 17.7817C18.634 17.5391 18.7395 17.2582 18.7395 17.2582C18.7395 17.2582 18.6076 18.0188 18.968 18.0188C19.0999 18.0188 19.2317 17.8419 19.2915 17.7507V17.7525C19.2915 17.7525 19.295 17.747 19.302 17.7343C19.3161 17.7124 19.3231 17.6996 19.3231 17.6996V17.696C19.3759 17.6011 19.4936 17.384 19.6694 17.0247C19.8962 16.5614 20.1142 15.9813 20.1142 15.9813C20.1142 15.9813 20.1353 16.1236 20.2003 16.3571C20.239 16.4957 20.3234 16.6471 20.3884 16.7948C20.3357 16.8715 20.3041 16.9152 20.3041 16.9152L20.3058 16.9171C20.2636 16.9754 20.2162 17.0374 20.1669 17.0995C19.9876 17.322 19.7732 17.5756 19.745 17.6485C19.7116 17.7343 19.7187 17.7981 19.7837 17.8492C19.8312 17.8857 19.9155 17.893 20.0052 17.8857C20.1669 17.8747 20.2794 17.8328 20.3357 17.8072C20.4236 17.7744 20.5238 17.7251 20.6205 17.6522C20.7963 17.5172 20.9035 17.3257 20.893 17.0703C20.8877 16.9298 20.8438 16.7912 20.7893 16.6599C20.8051 16.6361 20.8209 16.6124 20.8367 16.5869C21.1145 16.1655 21.329 15.7022 21.329 15.7022C21.329 15.7022 21.35 15.8445 21.4151 16.078C21.4485 16.1965 21.5153 16.326 21.5751 16.4537C21.3149 16.6745 21.1514 16.9298 21.0951 17.0976C20.9914 17.4077 21.0723 17.5482 21.2252 17.581C21.2938 17.5956 21.3922 17.5628 21.4661 17.53C21.5575 17.499 21.6682 17.4461 21.7702 17.3676C21.946 17.2326 22.1148 17.0447 22.106 16.7912C22.1007 16.6745 22.0708 16.5595 22.0304 16.4501C22.2519 16.3552 22.5384 16.3005 22.9023 16.3461C23.6846 16.441 23.8393 16.9481 23.8094 17.1597C23.7796 17.3713 23.6161 17.488 23.5616 17.5245C23.5071 17.5591 23.4895 17.5719 23.4948 17.5975C23.5018 17.6358 23.5264 17.6339 23.5739 17.6266C23.6389 17.6157 23.9852 17.4533 23.9993 17.063C24.0204 16.5614 23.5616 16.0141 22.7476 16.0196ZM16.7143 18.1301C16.4559 18.4238 16.092 18.535 15.9373 18.4402C15.7703 18.3399 15.8353 17.9076 16.1535 17.5956C16.3469 17.4059 16.5983 17.2308 16.7635 17.1232C16.8004 17.0995 16.8567 17.0648 16.9235 17.0229C16.934 17.0156 16.9411 17.0119 16.9411 17.0119C16.9534 17.0046 16.9674 16.9955 16.9815 16.9864C17.0993 17.4315 16.9868 17.8218 16.7143 18.1301ZM18.6041 16.7967C18.5144 17.0247 18.3246 17.6102 18.2103 17.5774C18.1119 17.55 18.0521 17.1068 18.191 16.669C18.2613 16.4483 18.4107 16.1856 18.4986 16.0834C18.641 15.9193 18.7957 15.8645 18.8344 15.932C18.8801 16.0196 18.6604 16.6544 18.6041 16.7967ZM20.1634 17.5701C20.1247 17.5902 20.0896 17.6047 20.0738 17.5938C20.0615 17.5865 20.0896 17.5591 20.0896 17.5591C20.0896 17.5591 20.2847 17.3421 20.3621 17.2418C20.406 17.1834 20.4588 17.1159 20.515 17.0393V17.0612C20.515 17.3238 20.2724 17.499 20.1634 17.5701ZM21.3659 17.2855C21.3377 17.2636 21.3413 17.1961 21.4362 16.9846C21.4731 16.9006 21.5575 16.7602 21.7034 16.627C21.721 16.6817 21.7315 16.7346 21.7298 16.7839C21.728 17.1122 21.503 17.2345 21.3659 17.2855Z" fill="#F472B6"/>
</svg>
