<svg width="24" height="25" viewBox="0 0 24 25" fill="none" xmlns="http://www.w3.org/2000/svg">
<path fill-rule="evenodd" clip-rule="evenodd" d="M5 4.64706C3.34315 4.64706 2 5.9902 2 7.64706V17.6471C2 19.3039 3.34315 20.6471 5 20.6471H14V18.6471H5C4.44772 18.6471 4 18.1993 4 17.6471V7.64706C4 7.09477 4.44772 6.64706 5 6.64706H7.78388C8.01539 6.64706 8.23973 6.72738 8.41862 6.87433L10.8119 8.84024C11.3486 9.28108 12.0216 9.52206 12.7161 9.52206H19C19.5523 9.52206 20 9.96977 20 10.5221V10.6471H22V10.5221C22 8.8652 20.6569 7.52206 19 7.52206H12.7161C12.4846 7.52206 12.2603 7.44173 12.0814 7.29478L9.6881 5.32888C9.15142 4.88803 8.47841 4.64706 7.78388 4.64706H5Z" fill="#64748B"/>
<path d="M16.8 14.8137C16.8 14.1694 17.3373 13.6471 18 13.6471C18.2209 13.6471 18.4 13.8212 18.4 14.0359C18.4 14.2507 18.2209 14.4248 18 14.4248C17.7791 14.4248 17.6 14.5989 17.6 14.8137V16.3453C17.6 16.6519 17.4771 16.9359 17.2718 17.1471C17.4771 17.3582 17.6 17.6422 17.6 17.9488V19.4804C17.6 19.6952 17.7791 19.8693 18 19.8693C18.2209 19.8693 18.4 20.0434 18.4 20.2582C18.4 20.473 18.2209 20.6471 18 20.6471C17.3373 20.6471 16.8 20.1247 16.8 19.4804V17.9488C16.8 17.7703 16.6751 17.6148 16.497 17.5715L16.303 17.5243C16.1249 17.4811 16 17.3255 16 17.1471C16 16.9686 16.1249 16.813 16.303 16.7698L16.497 16.7226C16.6751 16.6793 16.8 16.5238 16.8 16.3453V14.8137ZM23.2 14.8137C23.2 14.1694 22.6628 13.6471 22 13.6471C21.7791 13.6471 21.6 13.8212 21.6 14.0359C21.6 14.2507 21.7791 14.4248 22 14.4248C22.2209 14.4248 22.4 14.5989 22.4 14.8137V16.3453C22.4 16.6519 22.5229 16.9359 22.7282 17.1471C22.5229 17.3582 22.4 17.6422 22.4 17.9488V19.4804C22.4 19.6952 22.2209 19.8693 22 19.8693C21.7791 19.8693 21.6 20.0434 21.6 20.2582C21.6 20.473 21.7791 20.6471 22 20.6471C22.6628 20.6471 23.2 20.1247 23.2 19.4804V17.9488C23.2 17.7703 23.3249 17.6148 23.503 17.5715L23.697 17.5243C23.8751 17.4811 24 17.3255 24 17.1471C24 16.9686 23.8751 16.813 23.697 16.7698L23.503 16.7226C23.3249 16.6793 23.2 16.5238 23.2 16.3453V14.8137Z" fill="#86EFAC"/>
</svg>
