<svg width="24" height="24" viewBox="0 0 24 24" fill="none" xmlns="http://www.w3.org/2000/svg">
<path fill-rule="evenodd" clip-rule="evenodd" d="M5 4C3.34315 4 2 5.34315 2 7V17C2 18.6569 3.34315 20 5 20H13V18H5C4.44772 18 4 17.5523 4 17V7C4 6.44772 4.44772 6 5 6H7.78388C8.01539 6 8.23973 6.08033 8.41862 6.22727L10.8119 8.19318C11.3486 8.63402 12.0216 8.875 12.7161 8.875H19C19.5523 8.875 20 9.32272 20 9.875V10H22V9.875C22 8.21815 20.6569 6.875 19 6.875H12.7161C12.4846 6.875 12.2603 6.79467 12.0814 6.64773L9.6881 4.68182C9.15142 4.24098 8.47841 4 7.78388 4H5Z" fill="#64748B"/>
<path d="M16.2449 11.6056C13.2517 13.3313 13.2517 17.6688 16.2449 19.3944C19.2381 21.12 23 18.9513 23 15.5C23 12.0487 19.2381 9.87999 16.2449 11.6056ZM17.1003 18.1816C14.9533 18.1816 16.75 15.7675 15.2586 15.8092V15.164C16.6655 15.3386 14.988 12.5939 17.0899 12.8332V13.3327C15.9176 13.3604 17.083 14.8588 16.0285 15.4866C17.0899 16.1837 15.9731 17.7723 17.1003 17.5989V18.1816ZM17.025 15.8363C16.7828 15.6966 16.7828 15.3456 17.025 15.2059C17.2672 15.0663 17.5717 15.2418 17.5717 15.5211C17.5717 15.8004 17.2672 15.9759 17.025 15.8363M18.3175 15.8363C18.0753 15.6966 18.0753 15.3456 18.3175 15.2059C18.5597 15.0663 18.8642 15.2418 18.8642 15.5211C18.8642 15.8004 18.5597 15.9759 18.3175 15.8363ZM19.61 15.8363C19.3678 15.6966 19.3678 15.3456 19.61 15.2059C19.8522 15.0663 20.1567 15.2418 20.1567 15.5211C20.1567 15.8004 19.8522 15.9759 19.61 15.8363ZM19.8997 18.1816V17.5989C21.0269 17.7723 19.9101 16.1838 20.9714 15.4866C19.917 14.8588 21.0824 13.3604 19.9101 13.3327V12.8332C22.012 12.5939 20.3345 15.3386 21.7415 15.164V15.8092C20.25 15.7675 22.0467 18.1816 19.8997 18.1816Z" fill="#22C55E"/>
</svg>
