<svg width="24" height="24" viewBox="0 0 24 24" fill="none" xmlns="http://www.w3.org/2000/svg">
<path fill-rule="evenodd" clip-rule="evenodd" d="M5 4C3.34315 4 2 5.34315 2 7V17C2 18.6569 3.34315 20 5 20H13V18H5C4.44772 18 4 17.5523 4 17V7C4 6.44772 4.44772 6 5 6H7.78388C8.01539 6 8.23973 6.08033 8.41862 6.22727L10.8119 8.19318C11.3486 8.63402 12.0216 8.875 12.7161 8.875H19C19.5523 8.875 20 9.32272 20 9.875V10H22V9.875C22 8.21815 20.6569 6.875 19 6.875H12.7161C12.4846 6.875 12.2603 6.79467 12.0814 6.64773L9.6881 4.68182C9.15142 4.24098 8.47841 4 7.78388 4H5Z" fill="#64748B"/>
<path d="M22 13.5385H19.9677C19.848 13.5385 19.7331 13.4898 19.6484 13.4033C19.5637 13.3167 19.5161 13.1993 19.5161 13.0769V11M22 13.5385V19.5385C22 19.6609 21.9524 19.7783 21.8677 19.8648C21.783 19.9514 21.6682 20 21.5484 20H15.4516C15.3318 20 15.217 19.9514 15.1323 19.8648C15.0476 19.7783 15 19.6609 15 19.5385V11.4615C15 11.3391 15.0476 11.2217 15.1323 11.1352C15.217 11.0486 15.3318 11 15.4516 11H19.5161M22 13.5385L19.5161 11M16.4677 15.0385H20.5323M16.4677 16.3077H20.5323M16.4677 17.5769H18.9516" stroke="#4ADE80" stroke-width="0.7" stroke-linecap="round" stroke-linejoin="round"/>
</svg>
