<svg width="24" height="24" viewBox="0 0 24 24" fill="none" xmlns="http://www.w3.org/2000/svg">
<path fill-rule="evenodd" clip-rule="evenodd" d="M5 4C3.34315 4 2 5.34315 2 7V17C2 18.6569 3.34315 20 5 20H13V18H5C4.44772 18 4 17.5523 4 17V7C4 6.44772 4.44772 6 5 6H7.78388C8.01539 6 8.23973 6.08033 8.41862 6.22727L10.8119 8.19318C11.3486 8.63402 12.0216 8.875 12.7161 8.875H19C19.5523 8.875 20 9.32272 20 9.875V10H22V9.875C22 8.21815 20.6569 6.875 19 6.875H12.7161C12.4846 6.875 12.2603 6.79467 12.0814 6.64773L9.6881 4.68182C9.15142 4.24098 8.47841 4 7.78388 4H5Z" fill="#64748B"/>
<path d="M13.3785 11.0923C13.5858 11.8371 13.1549 12.6114 12.4296 12.7976L12.0449 12.8963C12.0153 13.0929 12 13.2945 12 13.5C12 13.715 12.0168 13.9258 12.0491 14.1309L12.4043 14.2196C13.1369 14.4027 13.5723 15.1849 13.3591 15.9347L13.2364 16.366C13.5256 16.6294 13.8551 16.8434 14.2137 16.9955L14.5385 16.6411C15.0577 16.0747 15.9284 16.0748 16.4474 16.6415L16.7758 17C17.1337 16.8495 17.4629 16.6376 17.7522 16.3763L17.6218 15.9078C17.4145 15.1629 17.8454 14.3886 18.5708 14.2025L18.9551 14.1037C18.9847 13.9072 19 13.7055 19 13.5C19 13.285 18.9832 13.0742 18.9509 12.8691L18.596 12.7804C17.8634 12.5974 17.428 11.8152 17.6413 11.0653L17.7638 10.6344C17.4747 10.3708 17.1451 10.1569 16.7865 10.0046L16.4618 10.3589C15.9426 10.9254 15.072 10.9252 14.5529 10.3585L14.2245 10C13.8666 10.1504 13.5374 10.3623 13.2481 10.6235L13.3785 11.0923ZM15.5 14.5248C14.9728 14.5248 14.5455 14.066 14.5455 13.5C14.5455 12.9341 14.9728 12.4753 15.5 12.4753C16.0272 12.4753 16.4545 12.9341 16.4545 13.5C16.4545 14.066 16.0272 14.5248 15.5 14.5248Z" fill="#EAB308"/>
<path d="M19.9847 13.7802C20.1327 14.3122 19.825 14.8653 19.3068 14.9983L19.0321 15.0688C19.011 15.2092 19 15.3532 19 15.5C19 15.6536 19.012 15.8041 19.0351 15.9506L19.2888 16.014C19.8121 16.1448 20.1231 16.7035 19.9708 17.2391L19.8831 17.5471C20.0897 17.7353 20.3251 17.8881 20.5812 17.9968L20.8132 17.7437C21.1841 17.339 21.806 17.3391 22.1767 17.7439L22.4113 18C22.6669 17.8925 22.9021 17.7411 23.1087 17.5545L23.0156 17.2198C22.8675 16.6878 23.1753 16.1347 23.6934 16.0018L23.9679 15.9312C23.989 15.7909 24 15.6468 24 15.5C24 15.3465 23.988 15.1959 23.9649 15.0493L23.7114 14.986C23.1882 14.8553 22.8771 14.2965 23.0295 13.7609L23.117 13.4531C22.9105 13.2649 22.6751 13.112 22.4189 13.0033L22.187 13.2563C21.8162 13.661 21.1943 13.6609 20.8235 13.2561L20.5889 13C20.3333 13.1075 20.0981 13.2588 19.8915 13.4454L19.9847 13.7802ZM21.5 16.232C21.1234 16.232 20.8182 15.9043 20.8182 15.5C20.8182 15.0958 21.1234 14.7681 21.5 14.7681C21.8766 14.7681 22.1818 15.0958 22.1818 15.5C22.1818 15.9043 21.8766 16.232 21.5 16.232Z" fill="#EAB308"/>
<path d="M16.7877 17.6242C16.9062 18.0498 16.66 18.4922 16.2455 18.5986L16.0257 18.655C16.0088 18.7674 16 18.8826 16 19C16 19.1229 16.0096 19.2433 16.0281 19.3605L16.231 19.4112C16.6497 19.5158 16.8985 19.9628 16.7766 20.3912L16.7065 20.6377C16.8718 20.7882 17.06 20.9105 17.265 20.9974L17.4506 20.7949C17.7472 20.4712 18.2448 20.4713 18.5414 20.7951L18.729 21C18.9335 20.914 19.1217 20.7929 19.2869 20.6436L19.2124 20.3759C19.094 19.9502 19.3402 19.5078 19.7547 19.4014L19.9743 19.345C19.9912 19.2327 20 19.1174 20 19C20 18.8772 19.9904 18.7567 19.9719 18.6395L19.7691 18.5888C19.3505 18.4842 19.1017 18.0372 19.2236 17.6088L19.2936 17.3625C19.1284 17.2119 18.9401 17.0896 18.7352 17.0027L18.5496 17.2051C18.2529 17.5288 17.7554 17.5287 17.4588 17.2049L17.2711 17C17.0666 17.086 16.8785 17.207 16.7132 17.3563L16.7877 17.6242ZM18 19.5856C17.6987 19.5856 17.4546 19.3234 17.4546 19C17.4546 18.6766 17.6987 18.4145 18 18.4145C18.3013 18.4145 18.5454 18.6766 18.5454 19C18.5454 19.3234 18.3013 19.5856 18 19.5856Z" fill="#EAB308"/>
</svg>
