<svg width="24" height="24" viewBox="0 0 24 24" fill="none" xmlns="http://www.w3.org/2000/svg">
<path fill-rule="evenodd" clip-rule="evenodd" d="M5 4C3.34315 4 2 5.34315 2 7V17C2 18.6569 3.34315 20 5 20H13V18H5C4.44772 18 4 17.5523 4 17V7C4 6.44772 4.44772 6 5 6H7.78388C8.01539 6 8.23973 6.08033 8.41862 6.22727L10.8119 8.19318C11.3486 8.63402 12.0216 8.875 12.7161 8.875H19C19.5523 8.875 20 9.32272 20 9.875V10H22V9.875C22 8.21815 20.6569 6.875 19 6.875H12.7161C12.4846 6.875 12.2603 6.79467 12.0814 6.64773L9.6881 4.68182C9.15142 4.24098 8.47841 4 7.78388 4H5Z" fill="#64748B"/>
<path d="M16 11.6C15.7791 11.6 15.6 11.7791 15.6 12V20C15.6 20.2209 15.7791 20.4 16 20.4H22C22.2209 20.4 22.4 20.2209 22.4 20V14C22.4 13.8785 22.3448 13.7636 22.2499 13.6877L19.7499 11.6877C19.679 11.6309 19.5908 11.6 19.5 11.6H16Z" stroke="#F87171" stroke-width="0.8" stroke-linejoin="round"/>
<path d="M19 12V14.5H22" stroke="#F87171" stroke-width="0.8" stroke-linejoin="round"/>
<path d="M20.9141 18.0088C20.6153 17.6893 19.7994 17.8195 19.604 17.8432C19.3168 17.5591 19.1214 17.2159 19.0525 17.0976C19.1559 16.7781 19.2248 16.4585 19.2363 16.1154C19.2363 15.8195 19.1214 15.5 18.7997 15.5C18.6848 15.5 18.5813 15.571 18.5238 15.6656C18.386 15.9142 18.4434 16.4112 18.6618 16.9201C18.5354 17.287 18.4204 17.642 18.0987 18.2692C17.7654 18.4112 17.0645 18.7426 17.007 19.0976C16.984 19.2041 17.0185 19.3107 17.0989 19.3935C17.1794 19.4645 17.2828 19.5 17.3862 19.5C17.8114 19.5 18.2251 18.8965 18.5124 18.3875C18.7537 18.3047 19.1329 18.1864 19.5121 18.1153C19.9603 18.5177 20.351 18.5769 20.5578 18.5769C20.8336 18.5769 20.937 18.4585 20.9715 18.352C21.0289 18.2337 20.9945 18.1035 20.9141 18.0088ZM20.6267 18.21C20.6153 18.2929 20.5119 18.3757 20.328 18.3284C20.1096 18.2692 19.9143 18.1627 19.7419 18.0207C19.8913 17.997 20.2245 17.9615 20.4659 18.0088C20.5578 18.0325 20.6497 18.0917 20.6267 18.21ZM18.7077 15.7721C18.7307 15.7366 18.7652 15.713 18.7997 15.713C18.9031 15.713 18.926 15.8431 18.926 15.9497C18.9146 16.1982 18.8686 16.4467 18.7882 16.6834C18.6158 16.21 18.6503 15.8786 18.7077 15.7721ZM18.6848 18.068C18.7767 17.8787 18.9031 17.5473 18.949 17.4053C19.0525 17.5828 19.2248 17.7958 19.3168 17.8905C19.3168 17.9023 18.9605 17.9733 18.6848 18.068ZM18.0068 18.5414C17.7425 18.9911 17.4667 19.2751 17.3173 19.2751C17.2943 19.2751 17.2713 19.2633 17.2483 19.2515C17.2138 19.2278 17.2023 19.1923 17.2138 19.145C17.2483 18.9793 17.5471 18.7544 18.0068 18.5414Z" fill="#F87171"/>
<path fill-rule="evenodd" clip-rule="evenodd" d="M18.4384 15.6137C18.5102 15.4954 18.6432 15.4 18.7997 15.4C19.001 15.4 19.1406 15.5032 19.2248 15.6459C19.306 15.7835 19.3363 15.957 19.3363 16.1154V16.1187C19.325 16.458 19.2592 16.7737 19.1613 17.0856C19.2403 17.2209 19.4071 17.4971 19.6404 17.7377C19.7589 17.7223 19.9855 17.6934 20.2219 17.6973C20.3594 17.6996 20.5043 17.713 20.6365 17.7482C20.768 17.7832 20.8949 17.8419 20.9871 17.9405L20.9904 17.944C21.0881 18.0591 21.1392 18.2284 21.0644 18.3894C21.0406 18.4591 20.9939 18.5323 20.9104 18.5877C20.8253 18.6442 20.7097 18.6769 20.5578 18.6769C20.3351 18.6769 19.9358 18.6138 19.4829 18.2228C19.1445 18.2897 18.8096 18.3924 18.5806 18.4699C18.4392 18.7176 18.2666 18.9883 18.0754 19.2014C17.8797 19.4195 17.6443 19.6 17.3862 19.6C17.2603 19.6 17.1328 19.5568 17.0328 19.4684L17.0299 19.4659L17.0272 19.4632C16.9268 19.3597 16.879 19.221 16.9087 19.0791C16.9283 18.9631 16.9976 18.8589 17.0824 18.7695C17.1689 18.6784 17.2795 18.5944 17.3951 18.5196C17.6117 18.3794 17.8575 18.2645 18.0261 18.1916C18.3128 17.6285 18.4286 17.2912 18.544 16.955C18.5476 16.9446 18.5512 16.9342 18.5547 16.9237C18.4511 16.674 18.3844 16.4262 18.3598 16.2063C18.3345 15.9793 18.3527 15.7681 18.4364 15.6171L18.4384 15.6137ZM18.6103 15.7159C18.5569 15.8136 18.5352 15.9746 18.5586 16.1842C18.5817 16.3914 18.6474 16.6329 18.7532 16.8796L18.6942 16.7176C18.6048 16.472 18.568 16.2605 18.5618 16.0939C18.5558 15.9315 18.5786 15.8009 18.6197 15.7247L18.6216 15.7211L18.6238 15.7178C18.6579 15.665 18.7198 15.613 18.7997 15.613C18.8484 15.613 18.892 15.629 18.9269 15.6581C18.9601 15.6856 18.9809 15.7209 18.9942 15.7537C19.0202 15.8175 19.026 15.8921 19.026 15.9497V15.9543C19.0141 16.212 18.9664 16.4698 18.8829 16.7156L18.7914 16.9846L18.7677 16.9195L18.7563 16.9527C18.7486 16.9751 18.7409 16.9975 18.7332 17.02C18.6146 17.3654 18.493 17.7197 18.1877 18.3149L18.1711 18.347L18.1379 18.3612C17.9728 18.4315 17.7205 18.5472 17.5037 18.6875C17.3953 18.7577 17.299 18.8319 17.2275 18.9072C17.155 18.9836 17.1155 19.0531 17.1057 19.1136L17.1049 19.1188C17.09 19.1878 17.1102 19.26 17.168 19.321C17.2284 19.3731 17.3065 19.4 17.3862 19.4C17.5533 19.4 17.7374 19.2787 17.9266 19.0678C18.1117 18.8615 18.2827 18.5909 18.4253 18.3384L18.444 18.3053L18.4799 18.2929C18.7232 18.2094 19.1076 18.0893 19.4937 18.0171L19.5422 18.008L19.5789 18.0409C20.0068 18.4252 20.373 18.4769 20.5578 18.4769C20.6817 18.4769 20.7558 18.4503 20.7999 18.4211C20.843 18.3924 20.8651 18.3562 20.8764 18.3212L20.8785 18.3146L20.8815 18.3083C20.917 18.2352 20.9 18.1479 20.8394 18.0754C20.7822 18.0152 20.6956 17.9709 20.5851 17.9415C20.5757 17.939 20.5663 17.9366 20.5568 17.9344C20.5936 17.9503 20.6305 17.9727 20.6612 18.0043C20.7146 18.0593 20.7422 18.1358 20.7254 18.2265C20.7008 18.3905 20.5177 18.4805 20.3031 18.4252L20.3018 18.4249C20.0684 18.3617 19.8605 18.248 19.6784 18.0978L19.507 17.9567L19.567 17.9472L19.5337 17.9143C19.2464 17.6301 19.049 17.2905 18.9738 17.1612C18.9711 17.1565 18.9685 17.1521 18.9661 17.1479L18.9436 17.1093L18.9573 17.0668C19.0585 16.7542 19.125 16.4446 19.1363 16.1137C19.1361 15.9768 19.109 15.8433 19.0525 15.7475C18.9988 15.6565 18.9201 15.6 18.7997 15.6C18.7269 15.6 18.6535 15.6459 18.6103 15.7159ZM18.7938 15.8233C18.7777 15.8567 18.7564 15.9439 18.7617 16.0865C18.764 16.1486 18.7713 16.2195 18.7855 16.2982C18.807 16.1822 18.8205 16.0649 18.826 15.9474C18.8259 15.8994 18.8202 15.8566 18.809 15.8291C18.8061 15.8218 18.8034 15.8174 18.8016 15.8149C18.7994 15.8167 18.7967 15.8195 18.7938 15.8233ZM18.9228 17.1616L19.0354 17.3549C19.1342 17.5244 19.3013 17.731 19.3885 17.8208L19.4168 17.8499V17.8905C19.4168 17.9224 19.4021 17.9443 19.3944 17.9538C19.3863 17.9639 19.3779 17.9703 19.3737 17.9733C19.3649 17.9795 19.3569 17.9832 19.3535 17.9847C19.3455 17.9883 19.3372 17.991 19.3312 17.993C19.3182 17.9971 19.3009 18.0018 19.282 18.0067C19.2585 18.0128 19.2288 18.0202 19.1954 18.0285C19.1744 18.0337 19.1519 18.0393 19.1286 18.0452C19.0053 18.0762 18.8508 18.1167 18.7172 18.1626L18.4897 18.2407L18.5948 18.0243C18.6843 17.8401 18.809 17.5132 18.8539 17.3745L18.9228 17.1616ZM18.9757 17.6291C18.943 17.7164 18.9043 17.815 18.8655 17.9078C18.9418 17.8864 19.0158 17.8673 19.0798 17.8512C19.0997 17.8462 19.1184 17.8415 19.1359 17.8372C19.0847 17.7756 19.0284 17.7033 18.9757 17.6291ZM20.0174 18.0911C20.1225 18.1519 20.2345 18.1994 20.3535 18.2317C20.5049 18.2704 20.5277 18.1963 20.5277 18.1963L20.5284 18.1909C20.5314 18.1755 20.5301 18.1663 20.5285 18.1609C20.5269 18.1555 20.5238 18.1499 20.5177 18.1436C20.5042 18.1297 20.4789 18.1158 20.4437 18.1064C20.3158 18.0818 20.1572 18.082 20.0174 18.0911ZM18.2552 18.3161L18.093 18.5921C17.9582 18.8214 17.8188 19.0115 17.6915 19.1457C17.628 19.2127 17.5654 19.2679 17.5059 19.3072C17.4487 19.3449 17.3836 19.3751 17.3173 19.3751C17.2689 19.3751 17.2259 19.3526 17.2065 19.3424C17.205 19.3417 17.2037 19.341 17.2025 19.3404L17.1969 19.3375L17.1917 19.3339C17.1586 19.3111 17.1321 19.2791 17.1187 19.2379C17.106 19.1985 17.1078 19.1588 17.1163 19.123C17.1298 19.0597 17.1659 19.0002 17.211 18.9464C17.2574 18.8912 17.3184 18.8359 17.3904 18.7813C17.5345 18.6719 17.7309 18.559 17.9647 18.4507L18.2552 18.3161ZM17.3642 19.075C17.3297 19.1161 17.3157 19.1464 17.3117 19.1653L17.3111 19.1686C17.3109 19.1694 17.3106 19.1701 17.3105 19.1708C17.314 19.1725 17.3167 19.1736 17.3188 19.1744C17.3193 19.1746 17.3198 19.1748 17.3202 19.1749C17.3308 19.1739 17.3554 19.1669 17.3958 19.1402C17.4383 19.1122 17.4892 19.0683 17.5464 19.0081C17.599 18.9526 17.6552 18.8851 17.7131 18.8068C17.6359 18.8524 17.5683 18.8973 17.5113 18.9406C17.4469 18.9895 17.398 19.0348 17.3642 19.075Z" fill="#F87171"/>
</svg>
