<svg width="24" height="25" viewBox="0 0 24 25" fill="none" xmlns="http://www.w3.org/2000/svg">
<path fill-rule="evenodd" clip-rule="evenodd" d="M5 4.64706C3.34315 4.64706 2 5.99021 2 7.64706V17.6471C2 19.3039 3.34315 20.6471 5 20.6471H14V18.6471H5C4.44772 18.6471 4 18.1993 4 17.6471V7.64706C4 7.09478 4.44772 6.64706 5 6.64706H7.78388C8.01539 6.64706 8.23973 6.72739 8.41862 6.87434L10.8119 8.84024C11.3486 9.28109 12.0216 9.52206 12.7161 9.52206H19C19.5523 9.52206 20 9.96978 20 10.5221V10.6471H22V10.5221C22 8.86521 20.6569 7.52206 19 7.52206H12.7161C12.4846 7.52206 12.2603 7.44174 12.0814 7.29479L9.6881 5.32889C9.15142 4.88804 8.47841 4.64706 7.78388 4.64706H5Z" fill="#64748B"/>
<circle cx="20" cy="16.6471" r="4" fill="#0EA5E9"/>
</svg>
