<svg width="24" height="24" viewBox="0 0 24 24" fill="none" xmlns="http://www.w3.org/2000/svg">
<path fill-rule="evenodd" clip-rule="evenodd" d="M5 4C3.34315 4 2 5.34315 2 7V17C2 18.6569 3.34315 20 5 20H13V18H5C4.44772 18 4 17.5523 4 17V7C4 6.44772 4.44772 6 5 6H7.78388C8.01539 6 8.23973 6.08033 8.41862 6.22727L10.8119 8.19318C11.3486 8.63402 12.0216 8.875 12.7161 8.875H19C19.5523 8.875 20 9.32272 20 9.875V10H22V9.875C22 8.21815 20.6569 6.875 19 6.875H12.7161C12.4846 6.875 12.2603 6.79467 12.0814 6.64773L9.6881 4.68182C9.15142 4.24098 8.47841 4 7.78388 4H5Z" fill="#64748B"/>
<path d="M18.1362 14.4022C18.2695 14.881 17.9925 15.3788 17.5262 15.4985L17.2789 15.5619C17.2599 15.6883 17.25 15.8179 17.25 15.95C17.25 16.0882 17.2608 16.2237 17.2816 16.3556L17.5099 16.4126C17.9809 16.5303 18.2608 17.0332 18.1237 17.5152L18.0448 17.7924C18.2307 17.9618 18.4425 18.0993 18.6731 18.1971L18.8819 17.9693C19.2157 17.6052 19.7754 17.6052 20.1091 17.9695L20.3202 18.2C20.5502 18.1033 20.7619 17.967 20.9478 17.7991L20.864 17.4979C20.7307 17.019 21.0078 16.5213 21.4741 16.4016L21.7211 16.3381C21.7401 16.2118 21.75 16.0821 21.75 15.95C21.75 15.8118 21.7392 15.6763 21.7184 15.5444L21.4903 15.4874C21.0194 15.3698 20.7394 14.8669 20.8765 14.3849L20.9553 14.1078C20.7694 13.9384 20.5576 13.8008 20.3271 13.703L20.1183 13.9307C19.7846 14.2949 19.2248 14.2948 18.8912 13.9305L18.68 13.7C18.45 13.7967 18.2383 13.9329 18.0524 14.1008L18.1362 14.4022ZM19.5 16.6088C19.1611 16.6088 18.8864 16.3138 18.8864 15.95C18.8864 15.5862 19.1611 15.2913 19.5 15.2913C19.8389 15.2913 20.1136 15.5862 20.1136 15.95C20.1136 16.3138 19.8389 16.6088 19.5 16.6088Z" fill="#64748B"/>
<path fill-rule="evenodd" clip-rule="evenodd" d="M15.9 19.1V12.8H23.1V19.1H15.9ZM15 11.9C15 11.4029 15.4029 11 15.9 11H23.1C23.5971 11 24 11.4029 24 11.9V19.1C24 19.5971 23.5971 20 23.1 20H15.9C15.4029 20 15 19.5971 15 19.1V11.9Z" fill="#64748B"/>
</svg>
