<svg width="24" height="24" viewBox="0 0 24 24" fill="none" xmlns="http://www.w3.org/2000/svg">
<path fill-rule="evenodd" clip-rule="evenodd" d="M5 4C3.34315 4 2 5.34315 2 7V17C2 18.6569 3.34315 20 5 20H13V18H5C4.44772 18 4 17.5523 4 17V7C4 6.44772 4.44772 6 5 6H7.78388C8.01539 6 8.23973 6.08033 8.41862 6.22727L10.8119 8.19318C11.3486 8.63402 12.0216 8.875 12.7161 8.875H19C19.5523 8.875 20 9.32272 20 9.875V10H22V9.875C22 8.21815 20.6569 6.875 19 6.875H12.7161C12.4846 6.875 12.2603 6.79467 12.0814 6.64773L9.6881 4.68182C9.15142 4.24098 8.47841 4 7.78388 4H5Z" fill="#64748B"/>
<path d="M23.9759 12.3363C23.971 12.2547 23.9349 12.1778 23.8747 12.12C23.8144 12.0623 23.7341 12.0277 23.649 12.023C20.3393 11.8367 17.6881 12.7917 16.5578 14.5833C16.166 15.1962 15.9729 15.9068 16.0031 16.625C16.0227 17.0842 16.1202 17.5374 16.2917 17.9666C16.3018 17.9931 16.3187 18.0166 16.3408 18.0351C16.363 18.0535 16.3896 18.0664 16.4183 18.0723C16.447 18.0783 16.4768 18.0771 16.5049 18.0691C16.533 18.061 16.5585 18.0463 16.5791 18.0262L20.2745 14.4304C20.3068 14.3995 20.3452 14.3749 20.3874 14.3581C20.4296 14.3414 20.4749 14.3327 20.5205 14.3327C20.5662 14.3327 20.6115 14.3414 20.6537 14.3581C20.6959 14.3749 20.7343 14.3995 20.7666 14.4304C20.7989 14.4614 20.8246 14.4982 20.8421 14.5386C20.8595 14.5791 20.8685 14.6225 20.8685 14.6663C20.8685 14.7101 20.8595 14.7534 20.8421 14.7939C20.8246 14.8344 20.7989 14.8711 20.7666 14.9021L16.7282 18.8308L16.1113 19.422C16.0472 19.4819 16.0088 19.5627 16.004 19.6484C15.9992 19.7341 16.0282 19.8184 16.0852 19.8845C16.1165 19.9192 16.1548 19.9473 16.1979 19.9672C16.241 19.987 16.2879 19.9981 16.3357 19.9998C16.3835 20.0015 16.4311 19.9937 16.4756 19.9769C16.5201 19.9602 16.5605 19.9348 16.5943 19.9024L17.3243 19.2029C17.939 19.4879 18.5594 19.6433 19.1746 19.6641C19.223 19.6658 19.2712 19.6666 19.3193 19.6666C20.0199 19.6683 20.7072 19.4834 21.3044 19.1325C23.1738 18.0491 24.1707 15.5088 23.9759 12.3363Z" fill="#22C55E"/>
</svg>
