<svg width="24" height="24" viewBox="0 0 24 24" fill="none" xmlns="http://www.w3.org/2000/svg">
<path fill-rule="evenodd" clip-rule="evenodd" d="M5 4C3.34315 4 2 5.34315 2 7V17C2 18.6569 3.34315 20 5 20H13V18H5C4.44772 18 4 17.5523 4 17V7C4 6.44772 4.44772 6 5 6H7.78388C8.01539 6 8.23973 6.08033 8.41862 6.22727L10.8119 8.19318C11.3486 8.63402 12.0216 8.875 12.7161 8.875H19C19.5523 8.875 20 9.32272 20 9.875V10H22V9.875C22 8.21815 20.6569 6.875 19 6.875H12.7161C12.4846 6.875 12.2603 6.79467 12.0814 6.64773L9.6881 4.68182C9.15142 4.24098 8.47841 4 7.78388 4H5Z" fill="#64748B"/>
<path d="M24 10H13V21H24V10Z" fill="white" fill-opacity="0.01"/>
<path d="M17.125 15.4856V12.2917C17.125 11.5323 17.7406 10.9167 18.5 10.9167C19.2594 10.9167 19.875 11.5323 19.875 12.2917V12.7513" stroke="#EF4444" stroke-linecap="round"/>
<path d="M19.875 15.5009V18.7084C19.875 19.4678 19.2594 20.0834 18.5 20.0834C17.7406 20.0834 17.125 19.4678 17.125 18.7084V18.2432" stroke="#EF4444" stroke-linecap="round"/>
<path d="M18.5 16.875H15.288C14.5306 16.875 13.9167 16.2594 13.9167 15.5C13.9167 14.7406 14.5306 14.125 15.288 14.125H15.7474" stroke="#EF4444" stroke-linecap="round"/>
<path d="M18.5 14.125H21.7058C22.4666 14.125 23.0833 14.7406 23.0833 15.5C23.0833 16.2594 22.4666 16.875 21.7058 16.875H21.2652" stroke="#EF4444" stroke-linecap="round"/>
</svg>
