<svg width="24" height="24" viewBox="0 0 24 24" fill="none" xmlns="http://www.w3.org/2000/svg">
<path fill-rule="evenodd" clip-rule="evenodd" d="M5 4C3.34315 4 2 5.34315 2 7V17C2 18.6569 3.34315 20 5 20H13V18H5C4.44772 18 4 17.5523 4 17V7C4 6.44772 4.44772 6 5 6H7.78388C8.01539 6 8.23973 6.08033 8.41862 6.22727L10.8119 8.19318C11.3486 8.63402 12.0216 8.875 12.7161 8.875H19C19.5523 8.875 20 9.32272 20 9.875V10H22V9.875C22 8.21815 20.6569 6.875 19 6.875H12.7161C12.4846 6.875 12.2603 6.79467 12.0814 6.64773L9.6881 4.68182C9.15142 4.24098 8.47841 4 7.78388 4H5Z" fill="#64748B"/>
<path d="M13.4911 14.196V13.1818H18.2695V14.196H16.4883V19H15.2724V14.196H13.4911ZM22.2127 14.8551C22.19 14.6259 22.0924 14.4479 21.9201 14.321C21.7478 14.1941 21.5138 14.1307 21.2184 14.1307C21.0176 14.1307 20.8481 14.1591 20.7099 14.2159C20.5716 14.2708 20.4656 14.3475 20.3917 14.446C20.3197 14.5445 20.2837 14.6562 20.2837 14.7812C20.2799 14.8854 20.3017 14.9763 20.3491 15.054C20.3983 15.1316 20.4656 15.1989 20.5508 15.2557C20.636 15.3106 20.7345 15.3589 20.8462 15.4006C20.958 15.4403 21.0773 15.4744 21.2042 15.5028L21.7269 15.6278C21.9807 15.6847 22.2137 15.7604 22.4258 15.8551C22.6379 15.9498 22.8216 16.0663 22.9769 16.2045C23.1322 16.3428 23.2525 16.5057 23.3377 16.6932C23.4248 16.8807 23.4693 17.0956 23.4712 17.3381C23.4693 17.6941 23.3784 18.0028 23.1985 18.2642C23.0205 18.5237 22.7629 18.7254 22.4258 18.8693C22.0906 19.0114 21.6862 19.0824 21.2127 19.0824C20.743 19.0824 20.3339 19.0104 19.9854 18.8665C19.6388 18.7225 19.368 18.5095 19.1729 18.2273C18.9798 17.9432 18.8784 17.5919 18.869 17.1733H20.0593C20.0726 17.3684 20.1284 17.5312 20.2269 17.6619C20.3273 17.7907 20.4608 17.8883 20.6275 17.9545C20.796 18.0189 20.9864 18.0511 21.1985 18.0511C21.4068 18.0511 21.5877 18.0208 21.7411 17.9602C21.8964 17.8996 22.0167 17.8153 22.1019 17.7074C22.1871 17.5994 22.2298 17.4754 22.2298 17.3352C22.2298 17.2045 22.1909 17.0947 22.1133 17.0057C22.0375 16.9167 21.9258 16.8409 21.7781 16.7784C21.6322 16.7159 21.4532 16.6591 21.2411 16.608L20.6076 16.4489C20.1171 16.3295 19.7298 16.143 19.4457 15.8892C19.1616 15.6354 19.0205 15.2936 19.0224 14.8636C19.0205 14.5114 19.1142 14.2036 19.3036 13.9403C19.4949 13.6771 19.7572 13.4716 20.0906 13.3239C20.4239 13.1761 20.8027 13.1023 21.2269 13.1023C21.6587 13.1023 22.0356 13.1761 22.3576 13.3239C22.6815 13.4716 22.9334 13.6771 23.1133 13.9403C23.2932 14.2036 23.386 14.5085 23.3917 14.8551H22.2127Z" fill="#2563EB"/>
</svg>
