<svg width="24" height="24" viewBox="0 0 24 24" fill="none" xmlns="http://www.w3.org/2000/svg">
<path fill-rule="evenodd" clip-rule="evenodd" d="M5 4C3.34315 4 2 5.34315 2 7V17C2 18.6569 3.34315 20 5 20H10V18H5C4.44772 18 4 17.5523 4 17V7C4 6.44772 4.44772 6 5 6H7.78388C8.01539 6 8.23973 6.08033 8.41862 6.22727L10.8119 8.19318C11.3486 8.63402 12.0216 8.875 12.7161 8.875H19C19.5523 8.875 20 9.32272 20 9.875V10H22V9.875C22 8.21815 20.6569 6.875 19 6.875H12.7161C12.4846 6.875 12.2603 6.79467 12.0814 6.64773L9.6881 4.68182C9.15142 4.24098 8.47841 4 7.78388 4H5Z" fill="#64748B"/>
<path d="M18.2162 17.8547C19.2059 17.7971 20.1417 17.6212 20.9231 17.3458C21.7045 17.0705 22.302 16.706 22.6517 16.2915C23.0013 15.877 23.0898 15.4281 22.9077 14.993C22.7257 14.5579 22.2798 14.153 21.6181 13.8217C20.9563 13.4904 20.1036 13.2452 19.1514 13.1124C18.1992 12.9796 17.1834 12.9642 16.2129 13.0678C15.2425 13.1715 14.354 13.3903 13.6428 13.7009C12.9315 14.0114 12.4244 14.4018 12.1757 14.8304C11.4883 16.0185 12.8679 17.2483 15.4386 17.7023" stroke="#A855F7" stroke-linecap="round" stroke-linejoin="round"/>
<path d="M12.0018 17.8751H15.4385V16.3515" stroke="#A855F7" stroke-linecap="round" stroke-linejoin="round"/>
</svg>
