<svg width="24" height="24" viewBox="0 0 24 24" fill="none" xmlns="http://www.w3.org/2000/svg">
<path fill-rule="evenodd" clip-rule="evenodd" d="M5 4C3.34315 4 2 5.34315 2 7V17C2 18.6569 3.34315 20 5 20H13V18H5C4.44772 18 4 17.5523 4 17V7C4 6.44772 4.44772 6 5 6H7.78388C8.01539 6 8.23973 6.08033 8.41862 6.22727L10.8119 8.19318C11.3486 8.63402 12.0216 8.875 12.7161 8.875H19C19.5523 8.875 20 9.32272 20 9.875V10H22V9.875C22 8.21815 20.6569 6.875 19 6.875H12.7161C12.4846 6.875 12.2603 6.79467 12.0814 6.64773L9.6881 4.68182C9.15142 4.24098 8.47841 4 7.78388 4H5Z" fill="#64748B"/>
<path fill-rule="evenodd" clip-rule="evenodd" d="M15 13.1429C15 12.8398 15.1185 12.5491 15.3295 12.3347C15.5405 12.1204 15.8266 12 16.125 12H22.875C23.1734 12 23.4595 12.1204 23.6705 12.3347C23.8815 12.5491 24 12.8398 24 13.1429V14.2857C24 14.5888 23.8815 14.8795 23.6705 15.0938C23.4595 15.3082 23.1734 15.4286 22.875 15.4286H16.125C15.8266 15.4286 15.5405 15.3082 15.3295 15.0938C15.1185 14.8795 15 14.5888 15 14.2857V13.1429ZM22.875 13.7143C22.875 13.8658 22.8157 14.0112 22.7102 14.1183C22.6048 14.2255 22.4617 14.2857 22.3125 14.2857C22.1633 14.2857 22.0202 14.2255 21.9148 14.1183C21.8093 14.0112 21.75 13.8658 21.75 13.7143C21.75 13.5627 21.8093 13.4174 21.9148 13.3102C22.0202 13.2031 22.1633 13.1429 22.3125 13.1429C22.4617 13.1429 22.6048 13.2031 22.7102 13.3102C22.8157 13.4174 22.875 13.5627 22.875 13.7143ZM15 17.7143C15 17.4112 15.1185 17.1205 15.3295 16.9062C15.5405 16.6918 15.8266 16.5714 16.125 16.5714H22.875C23.1734 16.5714 23.4595 16.6918 23.6705 16.9062C23.8815 17.1205 24 17.4112 24 17.7143V18.8571C24 19.1602 23.8815 19.4509 23.6705 19.6653C23.4595 19.8796 23.1734 20 22.875 20H16.125C15.8266 20 15.5405 19.8796 15.3295 19.6653C15.1185 19.4509 15 19.1602 15 18.8571V17.7143ZM22.875 18.2857C22.875 18.4373 22.8157 18.5826 22.7102 18.6898C22.6048 18.7969 22.4617 18.8571 22.3125 18.8571C22.1633 18.8571 22.0202 18.7969 21.9148 18.6898C21.8093 18.5826 21.75 18.4373 21.75 18.2857C21.75 18.1342 21.8093 17.9888 21.9148 17.8817C22.0202 17.7745 22.1633 17.7143 22.3125 17.7143C22.4617 17.7143 22.6048 17.7745 22.7102 17.8817C22.8157 17.9888 22.875 18.1342 22.875 18.2857Z" fill="#EAB308"/>
</svg>
