<svg width="24" height="24" viewBox="0 0 24 24" fill="none" xmlns="http://www.w3.org/2000/svg">
<path fill-rule="evenodd" clip-rule="evenodd" d="M5 4C3.34315 4 2 5.34315 2 7V17C2 18.6569 3.34315 20 5 20H13V18H5C4.44772 18 4 17.5523 4 17V7C4 6.44772 4.44772 6 5 6H7.78388C8.01539 6 8.23973 6.08033 8.41862 6.22727L10.8119 8.19318C11.3486 8.63402 12.0216 8.875 12.7161 8.875H19C19.5523 8.875 20 9.32272 20 9.875V10H22V9.875C22 8.21815 20.6569 6.875 19 6.875H12.7161C12.4846 6.875 12.2603 6.79467 12.0814 6.64773L9.6881 4.68182C9.15142 4.24098 8.47841 4 7.78388 4H5Z" fill="#64748B"/>
<path d="M18.5247 12H14V13.8462H17.7967L18.5247 12ZM17.3113 15.0769H14V16.9231H16.5833L17.3113 15.0769ZM18.0027 16.9231L18.7307 15.0769H24V16.9231H18.0027ZM16.0987 18.1538H14V20H15.3707L16.0987 18.1538ZM16.7893 20L17.5173 18.1538H24V20H16.7893ZM19.216 13.8462L19.944 12H24V13.8462H19.216Z" fill="#EF4444"/>
</svg>
