<svg width="24" height="24" viewBox="0 0 24 24" fill="none" xmlns="http://www.w3.org/2000/svg">
<path fill-rule="evenodd" clip-rule="evenodd" d="M5 4C3.34315 4 2 5.34315 2 7V17C2 18.6569 3.34315 20 5 20H13V18H5C4.44772 18 4 17.5523 4 17V7C4 6.44772 4.44772 6 5 6H7.78388C8.01539 6 8.23973 6.08033 8.41862 6.22727L10.8119 8.19318C11.3486 8.63402 12.0216 8.875 12.7161 8.875H19C19.5523 8.875 20 9.32272 20 9.875V10H22V9.875C22 8.21815 20.6569 6.875 19 6.875H12.7161C12.4846 6.875 12.2603 6.79467 12.0814 6.64773L9.6881 4.68182C9.15142 4.24098 8.47841 4 7.78388 4H5Z" fill="#64748B"/>
<path d="M20 12C22.2092 12 24 13.7909 24 16C24 18.2092 22.2092 20 20 20C17.7909 20 16 18.2092 16 16C16 13.7909 17.7909 12 20 12ZM21.1754 17.7996H18.8246C19.0854 18.7651 19.5387 19.4001 20 19.4001C20.4613 19.4001 20.9146 18.7651 21.1754 17.7996ZM18.2036 17.7999L17.1148 17.7998C17.4981 18.4129 18.0713 18.8951 18.7522 19.1638C18.5433 18.836 18.3709 18.4255 18.2442 17.9578L18.2036 17.7999ZM22.8853 17.7998L21.7964 17.7999C21.6669 18.3333 21.4799 18.7995 21.2474 19.1638C21.8861 18.9119 22.4299 18.4724 22.8112 17.9132L22.8853 17.7998ZM18.0377 15.1999H16.6948L16.6929 15.2068C16.6321 15.4613 16.5999 15.7269 16.5999 16C16.5999 16.4224 16.6769 16.8268 16.8177 17.1999L18.0868 17.1998C18.0299 16.8202 17.9997 16.417 17.9997 16C17.9997 15.7265 18.0127 15.4588 18.0377 15.1999ZM21.3586 15.1999H18.6414C18.6142 15.456 18.5996 15.7238 18.5996 16C18.5996 16.4237 18.6341 16.8278 18.6955 17.1999H21.3045C21.366 16.8278 21.4004 16.4237 21.4004 16C21.4004 15.7238 21.3858 15.456 21.3586 15.1999ZM23.3053 15.1995L21.9624 15.1999C21.9873 15.4588 22.0003 15.7265 22.0003 16C22.0003 16.417 21.9702 16.8202 21.9132 17.1998L23.1823 17.1999C23.3231 16.8268 23.4001 16.4224 23.4001 16C23.4001 15.7243 23.3673 15.4563 23.3053 15.1995ZM18.7526 12.8362L18.7435 12.8396C17.9247 13.1655 17.2624 13.8003 16.9005 14.6001L18.1196 14.6003C18.2449 13.8993 18.4636 13.289 18.7526 12.8362ZM20 12.5999L19.9537 12.602C19.4477 12.6483 18.9587 13.449 18.7317 14.6001H21.2683C21.0419 13.4522 20.5551 12.6528 20.0505 12.6024L20 12.5999ZM21.2478 12.8362L21.2905 12.9058C21.5582 13.3507 21.7614 13.9346 21.8804 14.6003L23.0995 14.6001C22.7537 13.8357 22.1334 13.222 21.3643 12.8847L21.2478 12.8362Z" fill="#60A5FA"/>
</svg>
