<svg width="24" height="24" viewBox="0 0 24 24" fill="none" xmlns="http://www.w3.org/2000/svg">
<path fill-rule="evenodd" clip-rule="evenodd" d="M5 4C3.34315 4 2 5.34315 2 7V17C2 18.6569 3.34315 20 5 20H13V18H5C4.44772 18 4 17.5523 4 17V7C4 6.44772 4.44772 6 5 6H7.78388C8.01539 6 8.23973 6.08033 8.41862 6.22727L10.8119 8.19318C11.3486 8.63402 12.0216 8.875 12.7161 8.875H19C19.5523 8.875 20 9.32272 20 9.875V10H22V9.875C22 8.21815 20.6569 6.875 19 6.875H12.7161C12.4846 6.875 12.2603 6.79467 12.0814 6.64773L9.6881 4.68182C9.15142 4.24098 8.47841 4 7.78388 4H5Z" fill="#64748B"/>
<mask id="mask0_31566_419" style="mask-type:alpha" maskUnits="userSpaceOnUse" x="16" y="12" width="8" height="9">
<path d="M16.2791 20.2932L16.0003 12.8644C15.9911 12.6191 16.1792 12.4111 16.4243 12.3958L22.743 12.0009C22.9924 11.9853 23.2072 12.1749 23.2228 12.4243C23.2234 12.4337 23.2237 12.4431 23.2237 12.4525V20.5475C23.2237 20.7974 23.0211 21 22.7712 21C22.7644 21 22.7577 20.9998 22.7509 20.9995L16.711 20.7283C16.4758 20.7177 16.288 20.5285 16.2791 20.2932Z" fill="#F472B6"/>
</mask>
<g mask="url(#mask0_31566_419)">
<path fill-rule="evenodd" clip-rule="evenodd" d="M16.0003 12.8644L16.2791 20.2932C16.288 20.5285 16.4758 20.7177 16.711 20.7283L22.7509 20.9995C22.7577 20.9998 22.7644 21 22.7712 21C23.0211 21 23.2237 20.7974 23.2237 20.5475V12.4525C23.2237 12.4431 23.2234 12.4337 23.2228 12.4243C23.2072 12.1749 22.9924 11.9853 22.743 12.0009L22.2462 12.0319L22.2824 13.0705C22.2837 13.1078 22.2546 13.139 22.2173 13.1403C22.2014 13.1409 22.1857 13.1358 22.1732 13.1259L21.8386 12.8623L21.4424 13.1628C21.4127 13.1854 21.3703 13.1795 21.3478 13.1498C21.3383 13.1373 21.3335 13.1219 21.3341 13.1062L21.3765 12.0863L16.4243 12.3958C16.1792 12.4111 15.9911 12.6191 16.0003 12.8644ZM20.2244 15.3922C20.2244 15.5683 21.4102 15.4839 21.5694 15.3602C21.5694 14.1614 20.9261 13.5314 19.7482 13.5314C18.5702 13.5314 17.9103 14.1712 17.9103 15.1309C17.9103 16.0922 18.6565 16.5112 19.2906 16.8672C19.7588 17.1301 20.1659 17.3586 20.1659 17.7459C20.1659 18.0018 20.0406 18.1538 19.7649 18.1538C19.4057 18.1538 19.2636 17.9703 19.2803 17.3465C19.2803 17.2112 17.9103 17.169 17.8685 17.3465C17.7621 18.8582 18.7039 19.2942 19.7816 19.2942C20.8259 19.2942 21.6446 18.7376 21.6446 17.7299C21.6446 16.6786 20.8562 16.2608 20.2048 15.9156C19.7462 15.6726 19.3555 15.4656 19.3555 15.0989C19.3555 14.739 19.6229 14.691 19.7816 14.691C19.9487 14.691 20.2494 14.7205 20.2244 15.3922Z" fill="#F472B6"/>
</g>
</svg>
