<svg width="24" height="25" viewBox="0 0 24 25" fill="none" xmlns="http://www.w3.org/2000/svg">
<path fill-rule="evenodd" clip-rule="evenodd" d="M5 4.64706C3.34315 4.64706 2 5.99021 2 7.64706V17.6471C2 19.3039 3.34315 20.6471 5 20.6471H14V18.6471H5C4.44772 18.6471 4 18.1993 4 17.6471V7.64706C4 7.09478 4.44772 6.64706 5 6.64706H7.78388C8.01539 6.64706 8.23973 6.72739 8.41862 6.87434L10.8119 8.84024C11.3486 9.28109 12.0216 9.52206 12.7161 9.52206H19C19.5523 9.52206 20 9.96978 20 10.5221V10.6471H22V10.5221C22 8.86521 20.6569 7.52206 19 7.52206H12.7161C12.4846 7.52206 12.2603 7.44174 12.0814 7.29479L9.6881 5.32889C9.15142 4.88804 8.47841 4.64706 7.78388 4.64706H5Z" fill="#64748B"/>
<path d="M15.9 13.9804C15.9 13.244 16.5044 12.6471 17.25 12.6471C17.4985 12.6471 17.7 12.8461 17.7 13.0915C17.7 13.337 17.4985 13.536 17.25 13.536C17.0015 13.536 16.8 13.7349 16.8 13.9804V15.7308C16.8 16.0812 16.6618 16.4057 16.4308 16.6471C16.6618 16.8884 16.8 17.213 16.8 17.5633V19.3137C16.8 19.5592 17.0015 19.7582 17.25 19.7582C17.4985 19.7582 17.7 19.9572 17.7 20.2026C17.7 20.4481 17.4985 20.6471 17.25 20.6471C16.5044 20.6471 15.9 20.0501 15.9 19.3137V17.5633C15.9 17.3594 15.7595 17.1816 15.5591 17.1321L15.3409 17.0782C15.1405 17.0288 15 16.851 15 16.6471C15 16.4431 15.1405 16.2653 15.3409 16.2159L15.5591 16.162C15.7595 16.1125 15.9 15.9348 15.9 15.7308V13.9804ZM23.1 13.9804C23.1 13.244 22.4956 12.6471 21.75 12.6471C21.5015 12.6471 21.3 12.8461 21.3 13.0915C21.3 13.337 21.5015 13.536 21.75 13.536C21.9985 13.536 22.2 13.7349 22.2 13.9804V15.7308C22.2 16.0812 22.3382 16.4057 22.5692 16.6471C22.3382 16.8884 22.2 17.213 22.2 17.5633V19.3137C22.2 19.5592 21.9985 19.7582 21.75 19.7582C21.5015 19.7582 21.3 19.9572 21.3 20.2026C21.3 20.4481 21.5015 20.6471 21.75 20.6471C22.4956 20.6471 23.1 20.0501 23.1 19.3137V17.5633C23.1 17.3594 23.2405 17.1816 23.4409 17.1321L23.6591 17.0782C23.8595 17.0288 24 16.851 24 16.6471C24 16.4431 23.8595 16.2653 23.6591 16.2159L23.4409 16.162C23.2405 16.1125 23.1 15.9348 23.1 15.7308V13.9804Z" fill="#F87171"/>
</svg>
