<svg width="24" height="24" viewBox="0 0 24 24" fill="none" xmlns="http://www.w3.org/2000/svg">
<path fill-rule="evenodd" clip-rule="evenodd" d="M5 4C3.34315 4 2 5.34315 2 7V17C2 18.6569 3.34315 20 5 20H13V18H5C4.44772 18 4 17.5523 4 17V7C4 6.44772 4.44772 6 5 6H7.78388C8.01539 6 8.23973 6.08033 8.41862 6.22727L10.8119 8.19318C11.3486 8.63402 12.0216 8.875 12.7161 8.875H19C19.5523 8.875 20 9.32272 20 9.875V10H22V9.875C22 8.21815 20.6569 6.875 19 6.875H12.7161C12.4846 6.875 12.2603 6.79467 12.0814 6.64773L9.6881 4.68182C9.15142 4.24098 8.47841 4 7.78388 4H5Z" fill="#64748B"/>
<path fill-rule="evenodd" clip-rule="evenodd" d="M17.9811 19.9937C15.7401 19.7357 14 17.8277 14 15.5118C14 13.0199 16.0147 11 18.5 11C20.9853 11 23 13.0199 23 15.5118C23 17.8385 21.5226 17.6472 20.2613 17.4834C19.5332 17.3891 18.8776 17.3043 18.6179 17.7171C18.4401 17.9996 18.6323 18.3515 18.8677 18.5874C18.9376 18.6575 18.993 18.7407 19.0309 18.8323C19.0687 18.9239 19.0882 19.022 19.0882 19.1212C19.0882 19.2203 19.0687 19.3185 19.0309 19.41C18.993 19.5016 18.9376 19.5848 18.8677 19.6549C18.6323 19.8909 18.3119 20.0321 17.9811 19.9937ZM18.0882 13.2559C18.0882 13.4354 18.0171 13.6075 17.8905 13.7344C17.764 13.8613 17.5923 13.9326 17.4132 13.9326C17.2342 13.9326 17.0625 13.8613 16.936 13.7344C16.8094 13.6075 16.7383 13.4354 16.7383 13.2559C16.7383 13.0764 16.8094 12.9043 16.936 12.7773C17.0625 12.6504 17.2342 12.5791 17.4132 12.5791C17.5923 12.5791 17.764 12.6504 17.8905 12.7773C18.0171 12.9043 18.0882 13.0764 18.0882 13.2559ZM16.025 15.9629C16.204 15.9629 16.3757 15.8916 16.5023 15.7647C16.6289 15.6378 16.7 15.4657 16.7 15.2862C16.7 15.1067 16.6289 14.9345 16.5023 14.8076C16.3757 14.6807 16.204 14.6094 16.025 14.6094C15.846 14.6094 15.6743 14.6807 15.5477 14.8076C15.4211 14.9345 15.35 15.1067 15.35 15.2862C15.35 15.4657 15.4211 15.6378 15.5477 15.7647C15.6743 15.8916 15.846 15.9629 16.025 15.9629ZM20.975 15.9629C21.154 15.9629 21.3257 15.8916 21.4523 15.7647C21.5789 15.6378 21.65 15.4657 21.65 15.2862C21.65 15.1067 21.5789 14.9345 21.4523 14.8076C21.3257 14.6807 21.154 14.6094 20.975 14.6094C20.796 14.6094 20.6243 14.6807 20.4977 14.8076C20.3711 14.9345 20.3 15.1067 20.3 15.2862C20.3 15.4657 20.3711 15.6378 20.4977 15.7647C20.6243 15.8916 20.796 15.9629 20.975 15.9629ZM19.625 13.9326C19.7136 13.9326 19.8014 13.9151 19.8833 13.8811C19.9652 13.8471 20.0396 13.7973 20.1023 13.7344C20.165 13.6716 20.2147 13.597 20.2486 13.5149C20.2825 13.4328 20.3 13.3448 20.3 13.2559C20.3 13.167 20.2825 13.079 20.2486 12.9969C20.2147 12.9148 20.165 12.8402 20.1023 12.7773C20.0396 12.7145 19.9652 12.6646 19.8833 12.6306C19.8014 12.5966 19.7136 12.5791 19.625 12.5791C19.446 12.5791 19.2743 12.6504 19.1477 12.7773C19.0211 12.9043 18.95 13.0764 18.95 13.2559C18.95 13.4354 19.0211 13.6075 19.1477 13.7344C19.2743 13.8613 19.446 13.9326 19.625 13.9326Z" fill="#3B82F6"/>
</svg>
