<svg width="24" height="24" viewBox="0 0 24 24" fill="none" xmlns="http://www.w3.org/2000/svg">
<path fill-rule="evenodd" clip-rule="evenodd" d="M5 4C3.34315 4 2 5.34315 2 7V17C2 18.6569 3.34315 20 5 20H13V18H5C4.44772 18 4 17.5523 4 17V7C4 6.44772 4.44772 6 5 6H7.78388C8.01539 6 8.23973 6.08033 8.41862 6.22727L10.8119 8.19318C11.3486 8.63402 12.0216 8.875 12.7161 8.875H19C19.5523 8.875 20 9.32272 20 9.875V10H22V9.875C22 8.21815 20.6569 6.875 19 6.875H12.7161C12.4846 6.875 12.2603 6.79467 12.0814 6.64773L9.6881 4.68182C9.15142 4.24098 8.47841 4 7.78388 4H5Z" fill="#64748B"/>
<path d="M14 20V19.1111H24V20H14ZM15.3636 18.6667C15.1136 18.6667 14.8997 18.5797 14.7218 18.4058C14.5439 18.2319 14.4548 18.0225 14.4545 17.7778V12.8889C14.4545 12.6444 14.5436 12.4353 14.7218 12.2613C14.9 12.0874 15.1139 12.0003 15.3636 12H22.6364C22.8864 12 23.1005 12.0871 23.2786 12.2613C23.4568 12.4356 23.5458 12.6447 23.5455 12.8889V17.7778C23.5455 18.0222 23.4565 18.2316 23.2786 18.4058C23.1008 18.58 22.8867 18.667 22.6364 18.6667H15.3636ZM15.3636 17.7778H22.6364V12.8889H15.3636V17.7778Z" fill="#3B82F6"/>
</svg>
