<svg width="24" height="24" viewBox="0 0 24 24" fill="none" xmlns="http://www.w3.org/2000/svg">
<path fill-rule="evenodd" clip-rule="evenodd" d="M5 4C3.34315 4 2 5.34315 2 7V17C2 18.6569 3.34315 20 5 20H13V18H5C4.44772 18 4 17.5523 4 17V7C4 6.44772 4.44772 6 5 6H7.78388C8.01539 6 8.23973 6.08033 8.41862 6.22727L10.8119 8.19318C11.3486 8.63402 12.0216 8.875 12.7161 8.875H19C19.5523 8.875 20 9.32272 20 9.875V10H22V9.875C22 8.21815 20.6569 6.875 19 6.875H12.7161C12.4846 6.875 12.2603 6.79467 12.0814 6.64773L9.6881 4.68182C9.15142 4.24098 8.47841 4 7.78388 4H5Z" fill="#64748B"/>
<path d="M21.5191 11.599C21.5577 11.5755 21.591 11.545 21.617 11.5094C21.643 11.4738 21.6612 11.4337 21.6705 11.3915C21.6798 11.3493 21.68 11.3058 21.6712 11.2635C21.6623 11.2212 21.6446 11.181 21.619 11.1451C21.5934 11.1092 21.5605 11.0785 21.5221 11.0546C21.4837 11.0307 21.4406 11.0142 21.3953 11.006C21.35 10.9978 21.3034 10.998 21.2583 11.0067C21.2131 11.0154 21.1702 11.0324 21.1321 11.0567L19.7763 11.9014C19.5294 11.8093 19.2659 11.7621 19 11.7623C18.7256 11.7623 18.4637 11.8114 18.2237 11.9014L16.8679 11.0567C16.7909 11.0099 16.6973 10.9934 16.6073 11.0107C16.5173 11.0279 16.4383 11.0777 16.3874 11.1491C16.3364 11.2205 16.3177 11.3078 16.3352 11.392C16.3527 11.4762 16.4051 11.5506 16.4809 11.599L17.5786 12.2824C17.2481 12.5675 17.025 12.9446 16.9423 13.3577C17.1493 13.308 17.3621 13.2828 17.5758 13.283H20.4247C20.6433 13.283 20.8553 13.3091 21.0577 13.3577C20.975 12.9446 20.7519 12.5675 20.4214 12.2824L21.5191 11.599ZM14 16.5416C14 16.4551 14.0368 16.3723 14.1022 16.3111C14.1676 16.25 14.2563 16.2157 14.3488 16.2157H15.7442V15.6457C15.7442 15.2825 15.8651 14.9457 16.0716 14.669L14.9167 14.2371C14.8328 14.2037 14.7661 14.141 14.7311 14.0622C14.6961 13.9835 14.6955 13.8951 14.7295 13.816C14.7634 13.7369 14.8292 13.6733 14.9127 13.639C14.9963 13.6046 15.0909 13.6022 15.1763 13.6323L16.6349 14.1771C16.9191 14.018 17.2444 13.9341 17.5758 13.9347H20.4242C20.7684 13.9347 21.0902 14.0233 21.3651 14.1771L22.8237 13.6323C22.8664 13.6153 22.9124 13.6065 22.9588 13.6063C23.0052 13.6062 23.0512 13.6146 23.0941 13.6313C23.1369 13.6479 23.1758 13.6724 23.2084 13.7032C23.241 13.7341 23.2667 13.7707 23.284 13.8109C23.3013 13.8512 23.3098 13.8943 23.309 13.9376C23.3082 13.981 23.2982 14.0237 23.2795 14.0634C23.2608 14.1031 23.2338 14.1389 23.2001 14.1687C23.1664 14.1986 23.1267 14.2218 23.0833 14.2371L21.9284 14.669C22.1421 14.9555 22.2564 15.2964 22.2558 15.6457V16.2157H23.6512C23.7437 16.2157 23.8324 16.25 23.8978 16.3111C23.9632 16.3723 24 16.4551 24 16.5416C24 16.628 23.9632 16.7109 23.8978 16.772C23.8324 16.8331 23.7437 16.8674 23.6512 16.8674H22.2558V16.976C22.2567 17.4711 22.1277 17.9587 21.88 18.3963L23.0833 18.846C23.1692 18.8782 23.2379 18.9409 23.2743 19.0204C23.3107 19.0999 23.3119 19.1896 23.2774 19.2699C23.243 19.3501 23.1759 19.4143 23.0908 19.4483C23.0057 19.4824 22.9096 19.4834 22.8237 19.4513L21.4786 18.9481C20.9392 19.5407 20.1768 19.9172 19.3488 20V16.976C19.3488 16.8896 19.3121 16.8067 19.2467 16.7456C19.1812 16.6845 19.0925 16.6502 19 16.6502C18.9075 16.6502 18.8188 16.6845 18.7533 16.7456C18.6879 16.8067 18.6512 16.8896 18.6512 16.976V20C17.8233 19.9173 17.0609 19.5409 16.5214 18.9486L15.1767 19.4508C15.1342 19.4667 15.0887 19.4747 15.0429 19.4742C14.9971 19.4737 14.9518 19.4647 14.9097 19.4479C14.8675 19.4311 14.8294 19.4066 14.7973 19.376C14.7653 19.3454 14.7401 19.3092 14.723 19.2694C14.706 19.2297 14.6975 19.1872 14.698 19.1444C14.6986 19.1016 14.7081 19.0593 14.7261 19.0199C14.7442 18.9806 14.7703 18.9449 14.8031 18.915C14.8359 18.8851 14.8747 18.8615 14.9172 18.8456L16.1209 18.3959C15.873 17.9585 15.7437 17.471 15.7442 16.976V16.8674H14.3488C14.2563 16.8674 14.1676 16.8331 14.1022 16.772C14.0368 16.7109 14 16.628 14 16.5416Z" fill="#4ADE80"/>
</svg>
