<svg width="24" height="24" viewBox="0 0 24 24" fill="none" xmlns="http://www.w3.org/2000/svg">
<path fill-rule="evenodd" clip-rule="evenodd" d="M5 4C3.34315 4 2 5.34315 2 7V17C2 18.6569 3.34315 20 5 20H13V18H5C4.44772 18 4 17.5523 4 17V7C4 6.44772 4.44772 6 5 6H7.78388C8.01539 6 8.23973 6.08033 8.41862 6.22727L10.8119 8.19318C11.3486 8.63402 12.0216 8.875 12.7161 8.875H19C19.5523 8.875 20 9.32272 20 9.875V10H22V9.875C22 8.21815 20.6569 6.875 19 6.875H12.7161C12.4846 6.875 12.2603 6.79467 12.0814 6.64773L9.6881 4.68182C9.15142 4.24098 8.47841 4 7.78388 4H5Z" fill="#64748B"/>
<path d="M23.9014 14.8853C23.8743 14.8624 23.6211 14.6587 23.0871 14.6587C22.9461 14.6594 22.8055 14.6723 22.6664 14.6973C22.5631 13.9428 21.9775 13.575 21.9512 13.5585L21.8079 13.4704L21.7136 13.6153C21.5955 13.81 21.5093 14.0247 21.4586 14.2501C21.363 14.6808 21.4212 15.0853 21.6266 15.4311C21.3786 15.5783 20.9807 15.6145 20.9002 15.6177H14.313C14.141 15.618 14.0014 15.7661 14.0004 15.9493C13.9927 16.564 14.0905 17.175 14.2889 17.7522C14.5158 18.3861 14.8534 18.8529 15.2926 19.1387C15.7848 19.4597 16.5844 19.6432 17.4908 19.6432C17.9002 19.6445 18.3089 19.6051 18.7115 19.5253C19.2711 19.4159 19.8096 19.2075 20.3047 18.9089C20.7126 18.6573 21.0798 18.3372 21.3919 17.9609C21.9138 17.3316 22.2247 16.6308 22.4559 16.008H22.548C23.1194 16.008 23.4708 15.7645 23.6646 15.5604C23.7933 15.4302 23.8939 15.2717 23.9591 15.0958L24 14.9683L23.9014 14.8853Z" fill="#60A5FA"/>
<path d="M14.9236 15.4123H15.8063C15.8489 15.4123 15.8834 15.3755 15.8834 15.3302V14.4927C15.8836 14.4474 15.8493 14.4104 15.8067 14.4102C15.8066 14.4102 15.8064 14.4102 15.8063 14.4102H14.9236C14.881 14.4102 14.8465 14.4469 14.8465 14.4922V14.4927V15.3302C14.8465 15.3755 14.881 15.4123 14.9236 15.4123V15.4123Z" fill="#60A5FA"/>
<path d="M16.14 15.4123H17.0227C17.0653 15.4123 17.0998 15.3755 17.0998 15.3302V14.4927C17.1 14.4474 17.0657 14.4104 17.0231 14.4102C17.023 14.4102 17.0229 14.4102 17.0227 14.4102H16.14C16.0972 14.4102 16.0625 14.4471 16.0625 14.4927V15.3302C16.0628 15.3756 16.0974 15.4123 16.14 15.4123" fill="#60A5FA"/>
<path d="M17.3749 15.4123H18.2576C18.3002 15.4123 18.3347 15.3755 18.3347 15.3302V14.4927C18.3349 14.4474 18.3006 14.4104 18.258 14.4102C18.2579 14.4102 18.2577 14.4102 18.2576 14.4102H17.3749C17.3323 14.4102 17.2978 14.4469 17.2978 14.4922V14.4927V15.3302C17.2978 15.3755 17.3323 15.4123 17.3749 15.4123V15.4123Z" fill="#60A5FA"/>
<path d="M18.5952 15.4123H19.4779C19.5206 15.4123 19.5552 15.3756 19.5554 15.3302V14.4927C19.5554 14.4471 19.5207 14.4102 19.4779 14.4102H18.5952C18.5527 14.4102 18.5182 14.4469 18.5182 14.4922V14.4927V15.3302C18.5182 15.3755 18.5527 15.4123 18.5952 15.4123V15.4123Z" fill="#60A5FA"/>
<path d="M16.14 14.2074H17.0227C17.0653 14.2072 17.0998 14.1703 17.0998 14.1249V13.2874C17.0998 13.2421 17.0653 13.2053 17.0227 13.2053H16.14C16.0974 13.2053 16.0627 13.242 16.0625 13.2874V14.1249C16.0627 14.1704 16.0973 14.2072 16.14 14.2074Z" fill="#60A5FA"/>
<path d="M17.3749 14.2074H18.2576C18.3003 14.2072 18.3347 14.1703 18.3347 14.1249V13.2874C18.3347 13.2421 18.3002 13.2053 18.2576 13.2053H17.3749C17.3323 13.2053 17.2979 13.2421 17.2979 13.2874V14.1249C17.2979 14.1703 17.3323 14.2072 17.3749 14.2074Z" fill="#60A5FA"/>
<path d="M18.5952 14.2074H19.4779C19.5206 14.2072 19.5552 14.1704 19.5554 14.1249V13.2874C19.5552 13.242 19.5206 13.2053 19.4779 13.2053H18.5952C18.5527 13.2053 18.5182 13.2421 18.5182 13.2874V14.1249C18.5182 14.1703 18.5526 14.2072 18.5952 14.2074Z" fill="#60A5FA"/>
<path d="M18.5952 13.0021H19.4779C19.5206 13.0021 19.5552 12.9654 19.5554 12.92V12.0821C19.5552 12.0367 19.5206 12 19.4779 12H18.5952C18.5527 12 18.5182 12.0367 18.5182 12.0821V12.92C18.5182 12.9654 18.5527 13.0021 18.5952 13.0021Z" fill="#60A5FA"/>
<path d="M19.8263 15.4123H20.709C20.7517 15.4123 20.7863 15.3756 20.7865 15.3302V14.4927C20.7865 14.4471 20.7518 14.4102 20.709 14.4102H19.8263C19.7837 14.4102 19.7492 14.4469 19.7492 14.4922V14.4927V15.3302C19.7492 15.3755 19.7837 15.4123 19.8263 15.4123" fill="#60A5FA"/>
</svg>
