<svg width="24" height="24" viewBox="0 0 24 24" fill="none" xmlns="http://www.w3.org/2000/svg">
<path fill-rule="evenodd" clip-rule="evenodd" d="M5 4C3.34315 4 2 5.34315 2 7V17C2 18.6569 3.34315 20 5 20H13V18H5C4.44772 18 4 17.5523 4 17V7C4 6.44772 4.44772 6 5 6H7.78388C8.01539 6 8.23973 6.08033 8.41862 6.22727L10.8119 8.19318C11.3486 8.63402 12.0216 8.875 12.7161 8.875H19C19.5523 8.875 20 9.32272 20 9.875V10H22V9.875C22 8.21815 20.6569 6.875 19 6.875H12.7161C12.4846 6.875 12.2603 6.79467 12.0814 6.64773L9.6881 4.68182C9.15142 4.24098 8.47841 4 7.78388 4H5Z" fill="#64748B"/>
<path d="M20.8788 17.7323C20.94 17.4986 20.9162 17.2848 20.8142 17.1258C20.7204 16.9802 20.5621 16.8959 20.3717 16.8862L16.7633 16.8341C16.7524 16.8342 16.7417 16.8313 16.732 16.8256C16.7223 16.82 16.7141 16.8118 16.7079 16.8019C16.7022 16.7911 16.6985 16.7792 16.6971 16.7669C16.6957 16.7545 16.6965 16.7419 16.6996 16.73C16.7061 16.7104 16.7175 16.6932 16.7325 16.6805C16.7475 16.6678 16.7654 16.66 16.7842 16.6581L20.4242 16.606C20.8554 16.5834 21.3242 16.1977 21.4883 15.7244L21.6962 15.1245C21.7056 15.1 21.7077 15.0729 21.7021 15.047C21.5888 14.4894 21.3139 13.988 20.9192 13.6192C20.5246 13.2503 20.0317 13.0342 19.5157 13.0037C18.9997 12.9733 18.4888 13.1301 18.0609 13.4504C17.6329 13.7707 17.3113 14.2368 17.145 14.7779C16.9303 14.6012 16.6638 14.5194 16.3975 14.5484C16.2448 14.5655 16.0972 14.6188 15.9649 14.7047C15.8325 14.7906 15.7185 14.9071 15.6306 15.0462C15.5426 15.1854 15.4829 15.3438 15.4554 15.5108C15.4279 15.6778 15.4333 15.8494 15.4713 16.0138C15.0771 16.0262 14.7028 16.2081 14.4281 16.521C14.1533 16.8338 13.9997 17.2528 14 17.6889C14.0006 17.77 14.0054 17.851 14.0146 17.9318C14.0172 17.9506 14.0257 17.9678 14.0387 17.9803C14.0516 17.9928 14.0682 17.9998 14.0854 18H20.7437C20.7629 17.9994 20.7814 17.9922 20.7966 17.9794C20.8119 17.9666 20.8231 17.9488 20.8287 17.9286L20.8788 17.7323ZM22.0275 15.1682C21.9954 15.1682 21.9604 15.1682 21.9279 15.1733C21.9046 15.1733 21.8842 15.1927 21.875 15.2185L21.7346 15.7595C21.6729 15.9931 21.6962 16.2069 21.7987 16.3664C21.8925 16.512 22.0508 16.5959 22.2412 16.606L23.0096 16.6581C23.0329 16.6581 23.0533 16.6701 23.065 16.6903C23.0708 16.701 23.0745 16.7129 23.076 16.7253C23.0775 16.7376 23.0768 16.7502 23.0737 16.7622C23.0672 16.7819 23.0557 16.7991 23.0407 16.8118C23.0256 16.8245 23.0076 16.8323 22.9887 16.8341L22.1887 16.8857C21.7546 16.9083 21.2892 17.2945 21.125 17.7677L21.0662 17.9327C21.0546 17.9659 21.075 17.9982 21.1075 17.9982H23.8562C23.8722 17.9984 23.8878 17.9929 23.9006 17.9824C23.9134 17.9719 23.9227 17.957 23.9271 17.9401C23.9744 17.7478 23.9989 17.5495 24 17.3502C23.9986 16.7724 23.7902 16.2188 23.4205 15.8105C23.0508 15.4023 22.5499 15.1726 22.0275 15.1719" fill="#F38020"/>
</svg>
